<svg xmlns="http://www.w3.org/2000/svg" xmlns:xlink="http://www.w3.org/1999/xlink" id="Layer_1" x="0px" y="0px" viewBox="0 0 2048 560" style="enable-background:new 0 0 2048 560;" xml:space="preserve"><style type="text/css">	.st0{clip-path:url(#SVGID_2_);}	.st1{fill:#FFFFFF;}</style><g>	<defs>		<rect id="SVGID_1_" x="2.7" width="2043.4" height="560"></rect>	</defs>	<clipPath id="SVGID_2_">		<use xlink:href="#SVGID_1_" style="overflow:visible;"></use>	</clipPath>	<g class="st0">		<path class="st1" d="M2,560C2,373.3,2,186.7,2,0c681.3,0,1362.7,0,2044,0c0,186.7,0,373.3,0,560C1364.7,560,683.4,560,2,560z    M2045.3,279.8c0.1-155.1-127-281.4-283.9-279c-151.6,2.4-278.2,127.3-274.5,286.1c3.5,152,129,274.6,283.6,272.3   C1922.7,556.9,2045.6,432.7,2045.3,279.8z M1423.6,233.1c-1.7,0-3,0-4.3,0c-173.5,0.1-347,0.2-520.4,0.2c-1,0-1.9,0-2.9,0   c-2.9-0.1-3.5,1.4-2.9,4c0.5,2.3,1,4.7,1,7.1c0.1,26.4,0,52.8,0,79.2c0,1.6,0.1,3.2-0.2,4.7c-0.7,2.9,0.4,3.6,3.1,3.6   c9.3-0.1,18.6,0,27.8,0c164.6,0.2,329.1,0.4,493.7,0.7c1.6,0,3.3,0,5,0C1423.6,299.2,1423.6,266.4,1423.6,233.1z M399.5,480.8   c10.9-27.8,21.6-55.2,32.3-82.6c1,1.6,1.3,3.2,1.5,4.7c2.4,20,4.8,39.9,7.1,59.9c0.7,5.8,1.7,11.7-4.2,16c8.9,0,17.4,0,26.8,0   c-5-3.5-6.6-8-7.2-12.8c-0.6-4.3-1.1-8.6-1.7-12.9c-2.5-18.7-4.9-37.5-7.5-56.2c-0.7-4.9-1.4-9.7,2.7-14c-8.1,0-15.8,0-22.9,0   c-9.2,23.7-18.3,47.1-27.4,70.4c-0.3-0.1-0.6-0.2-1-0.2c-10-23.4-19.9-46.8-29.9-70.1c-7.9,0-15.8,0-24.7,0   c5.8,3.7,5.1,8.6,4.4,13.4c-2.3,17.2-4.5,34.4-7.1,51.5c-1.6,10.5-0.9,21.8-9.2,30.9c7.7,0,14.8,0,22.9,0   c-5.6-3.6-5.5-8.6-4.9-13.6c2.3-18.1,4.7-36.3,7.1-54.4c0.5-4.1,1.2-8.2,1.8-12.3c1.2,0.8,1.7,1.7,2,2.6c3.8,9,7.6,17.9,11.4,26.9   c5.6,13.2,11.1,26.4,16.7,39.5C390.8,472.8,394.1,477.3,399.5,480.8z M1161.3,66.9c3.4,3.9,3.8,7.9,3.2,12.5   c-2.2,16.8-3.9,33.7-6.2,50.5c-1.6,11.3-0.7,23.2-8.4,33.3c6.8,0,13.2,0,20.3,0c-4.6-3.4-5-7.8-4.5-12.3   c2.1-18.3,4.2-36.6,6.3-54.9c0.5-4.3,1.1-8.6,1.7-12.9c1.2,1,1.7,2,2.1,3.1c8,21.3,15.9,42.6,23.9,63.9   c2.2,5.8,5.1,11.1,10.5,15.2c9.6-27.6,19.1-54.9,28.5-82.2c0.3,0.1,0.7,0.1,1,0.2c0.5,4.6,0.9,9.3,1.4,13.9   c1.8,17.6,3.7,35.2,5.5,52.8c0.5,5,0.5,9.8-4.3,13.3c8.1,0,15.7,0,24.3,0c-6.5-4.9-6.4-11.7-7.2-18c-2.6-21.3-5-42.6-7.6-63.8   c-0.6-5-1.4-9.9,2.5-14.2c-7.3,0-14.3,0-20.4,0c-8.2,23.8-16.3,47.1-24.6,71.2c-0.8-1.5-1.2-2.1-1.4-2.8   c-8.3-22.2-16.7-44.3-25.1-66.5c-0.3-0.9-1.5-2-2.2-2.1C1174.3,66.8,1167.8,66.9,1161.3,66.9z M938.7,379.8   c-3.5,0.3-7,0.5-10.4,1.1c-2.8,0.5-5.7,1.2-8.4,2.1c-34.2,11.2-47.1,51.6-24.8,78.9c14,17.2,32.9,22.2,54.2,18.4   c29.4-5.2,48-33.8,41-62.5C984.8,395.3,963.9,380,938.7,379.8z M806.7,478.9c-4-3.1-5.4-6.9-5.5-11.3c-0.2-11.1-0.2-22.2-0.4-33.2   c0-2.6,1.6-2.5,3.4-2.5c15.7,0,31.3,0.1,47,0c2.6,0,3.3,0.9,3.3,3.3c-0.1,8.3,0,16.6,0,25c0,6.7,0.5,13.5-5.5,18.7   c8.8,0,17.1,0,26.1,0c-5.1-3.8-5.8-8.7-5.8-13.9c0-22.7,0-45.3,0-68c0-5.3,0.8-10.3,5.5-14.1c-8.8,0-17,0-25,0   c1.3,2.4,3.5,4.7,3.7,7.2c0.8,10.3,0.9,20.6,1.3,30.8c-1.3,0.3-1.7,0.5-2.2,0.5c-16.4,0-32.8,0-49.2,0.1c-2.2,0-2.6-1.1-2.6-2.9   c0-6.4-0.1-12.8,0-19.2c0.1-6,0.1-12,5.5-16.4c-8.6,0-16.8,0-25.6,0c5.3,4.2,5.6,9.8,5.6,15.2c0.1,22.1,0,44.1-0.1,66.2   c0,5.3-0.6,10.6-5.8,14.5C789.5,478.9,797.8,478.9,806.7,478.9z M51.7,165.7c8.5,0.2,16.4-2,23.7-6.4   c19.3-11.7,28.6-35.4,22.6-58.5c-4.5-17.4-15-30-32.8-34.7c-17.9-4.7-34-0.6-46.9,13C6.4,91.8,2.8,107.2,5,124.2   C8.1,147.8,28,165.7,51.7,165.7z M277.4,163.3c12.8,0,24.5,0.7,36.2-0.2c17.3-1.2,30.6-9.3,38.6-25.2c4.6-9.1,5.5-18.8,5-28.8   c-1-20.3-13.5-35.8-33.2-40.4c-14.8-3.5-30-1.4-45-1.7c-0.1,0-0.3,0.3-0.5,0.6c3.3,2.6,4.3,6.3,4.4,10.2   c0.1,22.4,0.1,44.8,0.2,67.2C283.1,151.5,283.3,157.9,277.4,163.3z M816.4,163.3c-6.2-4.6-6.9-10.4-6.9-16.4c0-18.1,0-36.2,0-54.3   c0-1.2,0.1-2.5,0.2-4.7c1.3,1.7,2,2.5,2.6,3.3c7.5,10.8,15.1,21.5,22.6,32.3c7.9,11.2,15.7,22.5,23.7,33.7   c3.5,4.9,8.1,8.7,14.5,10.6c0-1.9,0-3.3,0-4.7c0-25.9,0-51.8,0-77.8c0-6.6,0-13.4,6.9-18.2c-7.9,0-14.9,0-23,0   c7.2,4.7,6.9,11.3,6.9,17.8c0,17.1,0,34.2,0,51.4c0,1.2,0,2.5,0,4.8c-1.2-1.4-1.7-1.8-2.1-2.4c-16.2-23.2-32.4-46.4-48.7-69.6   c-0.6-0.8-1.4-2.1-2.1-2.1c-5.6-0.2-11.1-0.1-17.7-0.1c4.7,3.7,6.8,7.7,6.8,12.5c0,23.7,0,47.5,0,71.2c0,4.1-1.4,7.8-4.5,10.7   c-0.5,0.5-0.9,1.1-1.5,1.9C801.5,163.3,808.3,163.3,816.4,163.3z M262.7,382.7c4.3,2.6,4.6,5.7,3.4,9.1c-0.5,1.6-1.1,3.2-1.7,4.7   c-8.1,20.3-16.3,40.7-24.4,61c-3.1,7.9-5.6,16.2-14.1,21.3c8.9,0,17,0,25.4,0c-4.6-3.7-5.2-5.3-3.4-10.8   c2.6-7.7,5.7-15.3,8.3-23.1c0.7-2.1,2.1-2.3,3.9-2.3c10.4,0,20.7,0.1,31.1,0c2.3,0,3.4,0.8,4.1,3c2.7,7.3,5.5,14.6,8.4,21.9   c1.6,4.2,3.3,8.3-3,11.2c10,0,19,0,28.9,0c-6.9-4.3-9.8-10.5-12.4-17c-10.3-25.4-20.6-50.8-30.9-76.3c-0.7-1.7-1.3-2.9-3.5-2.8   C276.6,382.8,270.3,382.7,262.7,382.7z M1350.2,478.8c-5.3-3.8-8.3-9-10.6-14.6c-3.1-7.6-6.2-15.1-9.2-22.7   c-7.5-18.5-15-37-22.5-55.5c-0.5-1.2-1.6-3.1-2.4-3.1c-6.7-0.3-13.5-0.1-20.3-0.1c3.5,2.9,3.1,6.2,2,9.6c-0.5,1.6-1.1,3.2-1.8,4.7   c-6.8,17.1-13.5,34.2-20.6,51.2c-4.5,10.7-6.3,22.9-17.3,30.5c8.8,0,16.7,0,24.9,0c-4.6-4-5.1-5.4-3.1-11.2   c2.6-7.5,5.5-14.9,8.1-22.4c0.7-2.1,2-2.6,4-2.6c10.4,0.1,20.7,0.1,31.1,0c2.3,0,3.4,0.8,4.2,2.9c2.8,7.6,5.8,15,8.6,22.6   c2.3,6,2.2,6.3-2.5,10.7C1332,478.8,1341.1,478.8,1350.2,478.8z M602.4,399.5c0-5.2,0.1-9.5-0.1-13.9c0-0.9-0.9-2.4-1.6-2.6   c-14.8-3.8-29.5-4.5-43.7,2.1c-17.3,8.1-16.8,29.9-4.5,38.8c6,4.3,12.9,7.4,19.4,11c5.4,3,11.2,5.3,16,8.9   c9.6,7.1,8.4,18.4-2.1,24c-7.2,3.9-14.7,3.9-22.5,2.2c-8-1.8-15.1-5.4-22.2-10.8c1.2,5.3,2.5,9.8,3.3,14.4   c0.5,2.9,1.9,4.2,4.5,4.6c6.5,1.1,13,2.7,19.5,3.1c12.8,0.7,24.7-2.4,34.1-11.8c5.9-5.9,9.1-12.9,7.9-21.5   c-1-7.5-5.7-12.4-11.8-16c-6.4-3.7-13.4-6.6-19.8-10.3c-5.3-3-10.9-5.9-15.3-10c-5.9-5.4-4.1-14.4,2.9-18.3   c5.6-3.1,11.6-3.6,17.9-2.6C591,392,596.7,394.8,602.4,399.5z M2.9,459.2c1.3,5.6,2.6,10.2,3.4,14.9c0.4,2.4,1.6,3.4,3.8,4.1   c10.1,2.9,20.3,4.2,30.7,2.7c9.9-1.4,18.7-5.4,25.3-13.3c10-11.8,8.4-26-4.4-34.6c-5.2-3.5-11.2-6.1-16.8-9.1   c-5.4-2.9-11-5.5-16.2-8.7c-4.9-3.1-7.8-7.7-6.5-13.8c1.3-6.1,6.1-8.8,11.6-10c10.1-2.3,19.3,0.1,27.7,6.1c0.7,0.5,1.5,1,2.6,1.7   c0-4.7-0.1-9,0.1-13.2c0.1-2.2-0.8-3-2.8-3.3c-4.9-0.7-9.7-1.9-14.6-2.2c-10.6-0.7-21,0.4-30.3,6C9.3,390.7,5.6,397,5.5,405.5   c-0.1,9.6,4.4,16.5,12.2,21.1c6.5,3.9,13.5,6.8,20.2,10.3c4.5,2.4,9.3,4.8,13.1,8.1c7.8,6.9,6.3,17.1-2.7,22.3   c-5.9,3.3-12.2,4.3-18.8,3.4C19.8,469.5,11.3,465.6,2.9,459.2z M1058.2,399.4c0-5.2,0.1-9.7-0.1-14.1c0-0.9-1-2.2-1.8-2.4   c-13.7-3.6-27.4-4.2-40.8,1c-12.9,5.1-18.7,16.6-14.8,29c2.2,7.1,7.3,11.8,13.6,15.3c5.7,3.1,11.7,5.6,17.5,8.6   c4.6,2.4,9.3,4.7,13.2,8c8,6.8,7.1,17.1-2.1,22.2c-4,2.2-8.8,3.6-13.3,3.9c-10.9,0.6-20.8-3.4-29.7-9.6c-0.7-0.5-1.4-0.9-2.6-1.7   c1.3,5.7,2.3,10.7,3.6,15.7c0.3,1,1.6,2.2,2.6,2.5c11.6,3.5,23.3,5.1,35.3,2.3c11.1-2.6,20.4-8.1,25.6-18.8   c4.7-9.6,2.8-19.2-5.4-26.1c-3.2-2.7-6.9-4.9-10.6-6.9c-5.4-2.9-11.2-5.1-16.6-8c-3.9-2.1-7.9-4.3-11.2-7.2   c-7.4-6.5-5.6-16.7,3.5-20.5c2.9-1.2,6.2-1.9,9.4-2.1C1042.7,390.1,1050.6,393.2,1058.2,399.4z M719.8,399.2   c0-5.1,0.1-9.5-0.1-13.8c0-0.9-1-2.3-1.8-2.5c-14.7-3.8-29.3-4.4-43.4,2.3c-9.5,4.5-14.3,13.6-13.1,23.2c1,8,5.2,14.1,11.9,18   c6.5,3.9,13.5,6.8,20.2,10.4c4.9,2.7,10,5.4,14.2,9.1c6.4,5.7,5.8,14.5-1.1,19.7c-2.9,2.2-6.5,3.9-10,4.6   c-11.7,2.5-22.3-1.3-32.3-7.2c-1.7-1-3.3-2.2-5.4-3.6c1.2,5.4,2.4,10,3.3,14.7c0.5,2.3,1.7,3.3,3.9,4c10,2.8,20.1,4.2,30.3,2.7   c10.6-1.5,19.8-5.8,26.6-14.5c8.5-10.9,7-24-3.9-32.4c-3.1-2.4-6.6-4.4-10.1-6.2c-4.7-2.4-9.7-4.3-14.3-6.8   c-4.4-2.4-9-4.8-12.7-8.2c-6.9-6.3-5.2-15.9,3.4-19.8c2.9-1.3,6.2-2.1,9.4-2.3C704,389.9,712,393,719.8,399.2z M521.7,163.3   c-2.1-2.3-4.3-4.1-5.4-6.3c-2.7-5.4-5-10.9-7.1-16.5c-8.6-23.5-16.9-47-25.5-70.5c-0.4-1.1-1.4-2.8-2.2-2.8   c-6-0.2-12.1-0.1-19-0.1c5.5,4,3.7,8.3,2.2,12.3c-7.4,21-14.8,41.9-22.3,62.9c-2.7,7.7-4.7,15.7-12.3,21c7.8,0,15,0,22.9,0   c-4.5-2.6-4.8-6.1-3.7-9.8c2.4-8,5-16.1,7.8-24c0.3-1,2.2-2,3.4-2c9-0.2,18.1,0,27.1-0.2c2.3,0,3.4,0.7,4.1,2.9   c2.3,7.3,4.8,14.6,7.3,21.9c1.4,4.2,3.2,8.3-3,11.4C505.4,163.3,513.4,163.3,521.7,163.3z M728.8,66.9c4.9,3.7,3.7,7.8,2.3,11.8   c-7,19.8-14,39.7-21.1,59.5c-3.2,8.9-4.8,18.7-13.7,25.1c8,0,15.1,0,22.4,0c-4-4.1-4.4-5.8-2.7-11.4c2.3-7.4,4.8-14.6,7-22   c0.6-2.1,1.7-2.8,3.9-2.7c9,0.1,18.1,0.1,27.1,0c2.1,0,3.2,0.5,3.9,2.6c2.5,7.8,5.1,15.5,7.9,23.2c1.4,3.9,2,7.5-3.4,10.2   c9.1,0,17.2,0,24.6,0c-2.4-3.8-5.5-7.5-7.4-11.7c-2.5-5.3-4.2-11-6.2-16.5c-7.8-21.7-15.5-43.5-23.4-65.1c-0.4-1.2-1.9-2.8-3-2.8   C741.2,66.8,735.4,66.9,728.8,66.9z M1148.7,163.3c-6.2-4.3-8.7-9.9-10.9-15.9c-9-25-17.9-50.1-27-75c-2.3-6.3-0.6-5.4-7.7-5.5   c-4.5,0-8.9,0-13.4,0c3,2.9,3.3,5.8,2.2,9.1c-0.6,1.9-1.2,3.9-1.8,5.8c-7.3,20.5-14.6,41-21.8,61.5c-2.5,7.3-4.7,14.7-11.9,19.9   c7.9,0,15,0,22.3,0c-4-4.1-4.5-5.4-2.8-10.8c2.3-7.7,4.8-15.4,7.5-23c0.4-1,2.2-2.2,3.3-2.2c9.2-0.2,18.3,0,27.5-0.2   c2.2,0,3.2,0.7,3.8,2.8c2.5,7.7,5.2,15.3,7.8,22.9c1.4,4,2.1,7.8-3.4,10.5C1131.5,163.3,1139.6,163.3,1148.7,163.3z M1290.6,163.3   c-4.2-2.8-5-5.8-3.8-9.6c2.6-8.1,5.1-16.3,7.9-24.3c0.3-1,2.2-2.1,3.4-2.1c9.2-0.2,18.3,0,27.5-0.1c2,0,3,0.5,3.6,2.5   c2.5,7.8,5.2,15.5,7.9,23.2c1.3,3.9,2.3,7.8-3.6,10.3c9.3,0,17.5,0,24.7,0c-2.5-4.1-5.5-8.3-7.8-12.8c-2-4.1-3.3-8.5-4.8-12.8   c-8.1-22.4-16.1-44.8-24.2-67.2c-0.5-1.3-1.7-3.2-2.6-3.3c-5.9-0.3-11.9-0.2-18.8-0.2c4.1,2.8,4.4,5.8,3.2,9.2   c-0.5,1.4-0.8,2.8-1.3,4.1c-6.3,17.7-12.3,35.4-18.9,53c-3.9,10.4-5.2,22.1-15.3,30C1275.5,163.3,1282.6,163.3,1290.6,163.3z    M490.8,421.2c0-8.3,0.1-16.1-0.1-24c-0.1-2.9,1.1-3.7,3.8-3.8c10-0.6,20.1-2.4,28.8,5c0-5.6,0-10.9,0-15.7c-17.7,0-35.2,0-53.5,0   c5.9,4.5,6.2,10.2,6.2,15.9c0.1,21.5,0.1,42.9,0,64.4c0,5.8-0.4,11.6-6,16c20,0,39.3,0,58.6-0.1c0.8,0,2-0.6,2.2-1.2   c2.1-5.6,4-11.2,5.6-16c-5.6,2.1-11.2,5.6-17.2,6.2c-8.6,0.9-17.5-0.4-26.2-0.7c-2.2-0.1-2.2-1.7-2.2-3.4c0-8.4,0-16.9,0-25.3   c0-2.1,0-4.2,0-6.8c8.4,0.9,16.7-2,24,3.5c0-4.8,0-9.4,0-14C506.9,421.2,499.1,421.2,490.8,421.2z M1107.6,478.9   c-5.9-3.7-7.6-8.5-7.6-14.1c0-8.3-0.3-16.6-0.3-24.9c-0.1-14.2-0.1-28.5,0.1-42.7c0-1.2,1-3.4,1.8-3.5c6.6-1.2,13.2-1.4,19.5,1.2   c5.7,2.4,9,6.6,9.9,12.8c1.4,10-3.3,18.4-13.2,22.9c-3.5,1.6-7.3,2.5-11.8,3.9c13.4,2.7,25,0.8,34.4-8.5   c12.3-12.1,9.2-31.3-6.1-39.2c-5.8-3-12-4.1-18.5-4.1c-11,0-21.9,0-32.9,0c-0.9,0-1.8,0.1-3.3,0.3c4.6,3.7,5.3,8.5,5.6,13.3   c0.1,1.8,0.1,3.6,0.1,5.4c0,19.4,0,38.8,0,58.2c0,6.8,0.5,13.7-5.8,19C1088.8,478.9,1097.6,478.9,1107.6,478.9z M921.1,143.6   c1.1,5.5,2.1,10.2,3,14.9c0.4,2.1,1.3,3.4,3.4,4.1c8.5,2.8,17.2,3.9,26,2.8c10.1-1.2,18.5-6,24.4-14.5c8.2-11.9,6.3-25.6-5.4-34.1   c-5.1-3.7-11-6.3-16.4-9.7c-5.1-3.2-10.5-6.1-14.7-10.3c-6.6-6.6-3.8-16.9,4.9-20.3c6.2-2.4,12.6-2.2,18.6,0.5   c3.4,1.5,6.6,3.8,10.1,5.8c0-4.5,0.1-9.1-0.1-13.6c0-0.9-1.4-2.1-2.4-2.4c-9.5-2.8-19.2-3.5-28.9-0.9c-9.7,2.6-17.5,7.7-19.7,18.4   c-2.4,11.3,1.3,20.5,10.8,27.1c5.1,3.5,10.9,6.1,16.3,9.3c4,2.4,8.2,4.6,11.8,7.6c7.9,6.7,7,17.7-1.5,23.4   c-4.6,3-9.7,4.2-15.2,3.5C936.7,154.3,928.6,150.3,921.1,143.6z M1416.2,83.9c0-5.4,0.1-9.9-0.1-14.3c0-0.9-1.1-2.1-2-2.4   c-11.8-3.5-23.7-4-35.3,0.9c-18,7.5-17.6,29.1-8.7,38.3c3.4,3.5,7.5,6.4,11.6,9c6,3.7,12.5,6.7,18.6,10.4   c4.3,2.6,7.6,6.3,8.5,11.6c1.4,8.6-4.2,15.8-14.1,17.6c-10.8,2-20.1-2-28.7-8c-1.1-0.8-2.1-1.6-3.9-3c1.2,5.7,2.3,10.2,3,14.8   c0.4,2.3,1.6,3.2,3.5,3.9c8.5,2.9,17.2,4,26,2.8c11.2-1.5,20.2-6.9,25.8-17c6.3-11.2,4-23.2-6.2-30.9c-4.5-3.4-9.6-5.9-14.4-8.8   c-4.9-3-10-5.7-14.8-8.9c-3.6-2.4-5.9-6.1-6.1-10.6c-0.4-7.6,5.3-13.2,14-14C1401.6,74.3,1409.1,77.3,1416.2,83.9z M104.7,143.9   c0.4,2.2,0.7,3.6,0.9,4.9c2.8,14.1,2.7,14.4,17.1,16.4c12.5,1.8,24.3,0.1,34.1-8.9c10.4-9.6,16-28.8-2.6-40.9   c-5.1-3.3-10.8-5.9-16-9.1c-4.5-2.7-9.3-5.3-13-9c-7.1-7.1-4.6-17.7,4.9-20.8c4.2-1.4,9.2-1.8,13.4-0.8c5.3,1.2,10.1,4.3,15.2,6.6   c0-3.9,0.1-8.3-0.1-12.8c0-0.9-1.3-2.3-2.3-2.5c-11-3.2-22-3.6-33,0.2c-20.9,7.1-20.7,32.7-7.4,42.4c5.7,4.1,12.2,7.2,18.2,11   c4.6,2.9,9.4,5.5,13.3,9.1c6.8,6.5,5.4,16.5-2.3,21.8c-6.2,4.2-12.9,4.6-20.1,3C117.6,152.9,111.2,149.2,104.7,143.9z M682.9,83.8   c0-5.3,0.1-9.8-0.1-14.2c0-0.9-1.3-2.3-2.2-2.6c-10.5-3-21.1-3.6-31.6-0.2c-8.7,2.9-15.4,8.2-17.2,17.7c-2,10.3,0.6,19.3,9.2,25.7   c5.1,3.8,10.9,6.5,16.3,9.8c4.7,2.9,9.8,5.4,13.8,9.1c7.9,7.2,6.3,17.9-2.9,23.3c-4.5,2.6-9.4,3.5-14.6,2.9   c-9.2-1.2-17.1-5.1-24.6-11.6c1.1,5.6,2.2,10.4,3,15.2c0.4,2.1,1.4,3,3.3,3.7c8.5,2.9,17.2,3.9,26,2.9c9.7-1.2,17.8-5.6,23.8-13.5   c9.2-12.3,7.2-26.4-5.2-35.4c-3.8-2.7-8-4.8-12-7.3c-5.7-3.4-11.4-6.6-16.9-10.4c-3.1-2.2-4.9-5.6-5.1-9.6   c-0.4-7.8,5-13.3,13.7-14.1C668.3,74.3,675.8,77.1,682.9,83.8z M367.1,67c4.9,4,5.5,8.9,5.5,14.1c0,22.8,0,45.5,0,68.3   c0,5.1-0.7,10-5.3,14c17.7,0,34.7,0,51.8-0.1c0.8,0,2.1-0.8,2.3-1.6c1.8-5.4,3.4-10.9,5.1-16.4c-12.3,11.1-26.3,7.8-40.4,5.8   c0-11.7,0-23,0-35c7.2,1,14.5-1.9,20.9,3.1c0-4.8,0-9.2,0-13.8c-7.1,0-14,0-21.1,0c0-8.5-0.1-16.7,0.1-24.9c0-0.9,1.3-2.5,2-2.5   c9.1-0.9,18.5-2.9,26.5,4.5c0-5.5,0-10.6,0-15.6C398.8,67,383.3,67,367.1,67z M201.5,118.2c0,0.3-0.1,0.7-0.1,1   c3.4,0.3,6.8,0.8,10.2,0.7c14.2-0.3,25.9-11.9,26.4-25.6c0.5-15.3-8.8-25.9-24.4-26.9c-10.8-0.7-21.7-0.4-32.5-0.5   c-1,0-2.1,0.1-3.7,0.2c4.1,3.7,5,8.1,5,12.8c0,23,0.1,46,0.1,69c0,5.2-0.5,10.5-5.1,14.3c8.3,0,16.2,0,24.9,0   c-6.3-4.4-6.7-10.3-6.7-16.4c0-19.9,0-39.8,0-59.6c0-10.1,0-10.1,10.3-9.8c12.1,0.3,19.5,9.4,17.4,21.4   C221.4,109.3,214,116,201.5,118.2z M1052.7,145.5c-12.4,11.1-26.5,7.6-40.4,5.7c0-11.7,0-23.2,0-35c7.3,1,14.9-2.2,21.2,3.5   c0-5,0-9.6,0-14.2c-7.2,0-14.2,0-21.5,0c0-8.6-0.1-16.9,0.1-25.2c0-0.8,1.4-2.2,2.3-2.3c9.1-0.9,18.5-2.9,26.4,4.5   c0-5.5,0-10.6,0-15.5c-15.7,0-31.2,0-47.2,0c5.8,4.9,5.4,11.2,5.5,17.2c0.2,20.7,0.2,41.5,0,62.2c-0.1,5.9,0.2,12.1-5.4,17   c17.7,0,34.7,0,51.7-0.1c0.8,0,2.1-0.8,2.3-1.4C1049.3,156.5,1051,151,1052.7,145.5z M1234.4,478.9c-6.2-4.2-7.6-9.5-7.6-15.4   c0-19.8,0-39.5,0-59.3c0-3.6-1.1-8.7,0.7-10.4c2.1-1.9,7-0.9,10.7-1c5.6-0.1,11.1,0.1,15,5.8c1.6-5.9,3-11.2,4.4-16.4   c-24.1,0-47.7,0-71.5,0c-1.5,5.1-3,10.4-4.7,15.9c11.6-5.2,21-6.7,30.3-4.8c0.1,0.6,0.3,1.3,0.3,2c0,23.5,0,47,0,70.5   c0,4.9-1,9.5-5.6,13.1C1215.9,478.9,1224.6,478.9,1234.4,478.9z M72.3,399c6.4-5.2,13.1-6.2,20-6.2c2.2,0,4.4,0.2,6.5,0   c3.5-0.4,4.5,0.9,4.5,4.4c-0.1,21.9,0,43.9,0,65.8c0,5.8-0.2,11.6-5.8,15.9c9.4,0,18.3,0,27.9,0c-4.9-3.4-7.2-7.5-7.2-12.8   c-0.1-23.5-0.2-47-0.3-70.5c0-2,0.7-2.8,2.8-2.8c3.9,0.1,7.7-0.1,11.6,0.1c4.6,0.2,9.1,1,12.2,5.9c1.6-5.9,3-11.2,4.4-16.5   c-24,0-47.6,0-71.5,0C75.8,387.2,74.2,392.6,72.3,399z M1425.6,460.8c-8.2,5.5-16.9,8.7-26.7,7.9c-5.2-0.4-10.3-1.1-15.5-1.1   c-3.3,0-3.9-1.3-3.9-4.3c0.1-21.9,0.1-43.9,0.1-65.8c0-5.4,0.5-10.6,5.5-14.5c-8.8,0-17,0-25.8,0c4.9,3.9,5.5,8.9,5.5,14.1   c0,22.4,0,44.9,0,67.3c0,5.4-0.6,10.5-5.8,14.6c19.7,0,38.6,0,57.5-0.1c0.9,0,2.3-0.9,2.7-1.7   C1421.5,471.8,1423.5,466.3,1425.6,460.8z M182.2,512.4c0.1,0.3,0.2,0.6,0.4,1c5.4-1.5,10.9-2.5,16.1-4.6   c10.9-4.3,15.4-11.5,15.4-23.1c0-29,0-58.1,0-87.1c0-5.7,0.3-11.4,5.7-15.6c-8.9,0-17.2,0-26.2,0c5.2,3.9,5.8,9.2,5.8,14.5   c0.1,27.7,0,55.4,0.1,83.2c0,13-4.4,23.5-15.7,30.6C183.2,511.4,182.7,511.9,182.2,512.4z M588.7,144.4   c-9.3,6.8-16.2,9.4-22.7,8.8c-4.9-0.5-9.8-1-14.8-1.1c-2.9-0.1-3.7-1.1-3.7-3.9c0-22.1-0.1-44.1-0.1-66.2c0-5.3,0.4-10.6,5.1-15   c-8,0-15.4,0-23.4,0c4.7,3.9,5.3,8.8,5.4,13.8c0.1,22.9,0.1,45.8,0,68.7c0,4.9-0.7,9.8-5.4,13.8c17.5,0,34.3,0,51.2-0.1   c0.8,0,2.1-1.1,2.4-1.9C584.8,156,586.6,150.6,588.7,144.4z M1181,478.9c-5.2-4-5.7-9.1-5.7-14.4c0-22.2,0-44.3,0-66.5   c0-5.6,0.4-11,5.4-15.1c-8.7,0-16.9,0-25.9,0c5.3,4,5.7,9.4,5.7,14.7c0.1,20.8,0,41.7,0,62.5c0,6.7,0.4,13.4-5.5,18.8   C1163.8,478.9,1172,478.9,1181,478.9z M267.7,67.2c-8.1,0-15.6,0-22.4,0c1.2,2.8,2.7,5.4,3.5,8.2c0.7,2.5,0.7,5.3,0.7,7.9   c0,20.5,0.1,41,0,61.5c0,6.5,0.4,13.2-5,18.5c7.9,0,15.3,0,23.3,0c-4.2-3.3-5.2-7.5-5.2-11.9c-0.1-24.1-0.1-48.2,0-72.3   C262.5,74.7,263.5,70.4,267.7,67.2z M628.9,407c3,2.2,4.7,2.4,6.5-0.1c3.1-4.2,6-8.7,8.3-13.4c1.1-2.4,1.1-5.7,0.6-8.4   c-0.7-4.3-5-6.9-9.5-6.6c-3.9,0.3-7,3.3-7.5,7.1c-0.5,4.1,1.4,7,6.2,8.3c3,0.8,3,2.4,1.6,4.4C633.2,401.3,631,404.1,628.9,407z    M383.5,60.5c0.1,0.2,0.1,0.4,0.2,0.6c10.9-3.7,21.9-7.5,33.2-11.3c-2.5-3.8-4.7-7.1-7-10.5C400.9,46.5,392.2,53.5,383.5,60.5z    M1035.9,39.3c-8.9,7.2-17.3,14-25.7,20.8c0.2,0.3,0.3,0.5,0.5,0.8c10.7-3.7,21.4-7.3,32.4-11.1   C1040.5,46.1,1038.4,42.9,1035.9,39.3z"></path>		<path d="M2045.3,279.8c0.2,152.9-122.6,277.1-274.8,279.4c-154.7,2.3-280.1-120.2-283.6-272.3c-3.7-158.8,122.9-283.8,274.5-286.1   C1918.3-1.7,2045.4,124.7,2045.3,279.8z M1559.5,280c-0.6,110.6,88.9,206.7,206.6,206.7c115.3,0.1,205.2-92.5,206.8-203.6   c1.6-115.3-90.8-209.9-206.8-209.8C1648.6,73.3,1558.9,169.3,1559.5,280z M1654.2,513.4c5.8,2.3,11.4,4.8,17.1,6.7   c2.5,0.8,5.6,0.7,8.2,0.1c8.6-2,12.9-8.3,14.6-16.5c1.3-6.4-1.1-11.7-6.5-14.7c-6.3-3.5-13.1-6.1-19.7-9.2   C1663.2,491.3,1658.8,502.2,1654.2,513.4z M1523.5,300.8c6-6,11.9-11.9,17.3-17.3c-5.6-5.8-11.3-11.9-16.7-17.5   c-5.8,5.9-11.7,11.8-17.8,17.9c5.1,5,10.4,10.4,15.8,15.7C1522.6,300.1,1523.2,300.5,1523.5,300.8z M1569.5,155.1   c9.9,0,19.8-10.8,19.8-21.5c0-10.1-8.5-18.7-18.5-18.8c-10.4-0.1-20.6,10.7-20.5,21.6C1550.5,146.4,1559.4,155.1,1569.5,155.1z    M1991.3,283.2c5.8,5.9,11.6,11.8,17,17.3c5.9-5.8,11.9-11.6,17.7-17.3c-5.8-5.8-11.7-11.6-17.3-17.2   C2002.9,271.6,1997.1,277.4,1991.3,283.2z M1918.5,113.1c1-1.2,1.7-2.2,2.5-3.1c2.6-3,5.2-6,7.8-9c1.8-1.9,4-3.2,6.3-1.1   c2.2,2.1,0.8,4.2-0.7,6.1c-0.8,1-1.7,2-2.6,3c-2.6,2.8-5.2,5.6-8,8.6c2,1.8,4,3.5,5.9,5.2c3.6-4,7.1-7.7,10.4-11.5   c2.6-3,5.1-6.1,3-10.3c-2.1-4.3-5.9-5.7-10.6-5.1c-0.2,0-0.4-0.2-0.6-0.3c0.5-6.3-2.2-9.1-9.5-9.8c0.9-2.6,0.5-3.1-4.9-6.7   c-5.4,6.1-10.8,12.3-16.4,18.6c1.9,1.7,3.8,3.4,5.9,5.3c1.3-1.6,2.4-3.1,3.6-4.4c2.7-2.9,5.2-6,8.3-8.5c1-0.8,3.5-0.4,5,0.3   c0.5,0.2,0.2,2.9-0.2,4.3c-0.3,1.1-1.4,1.9-2.2,2.8c-3,3.3-5.9,6.6-9.1,10.1C1914.5,109.4,1916.4,111.1,1918.5,113.1z    M1647.5,60.3c-8.3,0-13,4.5-11.5,11.4c0.8,3.8,2.8,7.8,5.4,10.7c5.5,6.4,13.4,4.6,16.4-2.9c3.4,1.7,5.2-1.6,7.9-2.4   c-6.5-11.6-12.9-23-19.3-34.4c-2.3,1.4-4.5,2.6-6.9,4C1642.2,51.2,1644.7,55.5,1647.5,60.3z M1772.7,538.6   c-4.5,4-4.9,8.2-1.3,11.1c5.5,4.4,17.8,1.6,20.9-4.8c3.2-6.5,0-11.7-7.2-11.8c-1.6,0-3.2,0.4-4.7,0.1c-1.3-0.3-2.5-1.3-3.7-2   c1.1-0.6,2.1-1.6,3.3-1.8c8.9-1.3,11.8-6.5,8.3-14.2c1.1-0.8,2-1.6,3-2.3c-1.2-0.4-2.3-1.2-3.5-1.2c-3.6,0-7.2,0-10.8,0.4   c-7.3,0.7-11.1,6.8-8,12.7c1,1.9,2.5,3.5,3.7,5.3C1769.8,533.4,1769.7,534.8,1772.7,538.6z M1596.1,94.4   c8.4,10.1,16.6,19.9,24.9,29.9c2-1.8,4-3.5,5.9-5.1c-3.3-3.9-6.5-7.5-9.7-11.2c11.1-2,11.8-10.8,7.7-17c-1.2-1.9-2.7-3.7-4.4-5.2   c-3-2.7-6.5-4.2-10.6-2.8c-4,1.3-6.2,4.2-6.4,8.1C1599.6,89.5,1598.7,93.5,1596.1,94.4z M1985.7,419.1c-2-5.6,1.2-7.4,4.3-9.4   c0.8-0.5,1.3-1.7,1.8-2.7c2.3-4.6,1.5-8.9-1.7-12.7c-4.1-4.8-10.9-7.1-15.8-5.5c-5.2,1.8-6.8,5.8-6.3,11.3   c-4.8-2.9-9.2-5.5-13.7-8.3c-1.4,2.5-2.7,4.8-3.9,7C1961.9,405.5,1973.2,411.9,1985.7,419.1z M1563.7,436.7   c0.1,6.5,3.7,11.1,9.5,11.8c4.2,0.5,7.7-1.3,10.9-3.8c8.2-6.4,7.2-15.5-2.6-19.7c4.3-3.3,8.4-6.6,12.5-9.8c-1.9-2.2-3.5-4.1-5.1-6   c-10.3,8.4-20.4,16.6-31,25.2C1560,435.2,1561.7,435.9,1563.7,436.7z M1591.5,468.7c1.7,2.3,3.2,4.3,4.8,6.5   c4.5-4.8,9-9,12.9-13.7c3.5-4.1,2.8-8.6-1.5-11.6c-1.8-1.2-4.1-1.8-6.4-2.7c3.8-3.5,7.6-7.1,10.8-10.2c-2.2-2.7-3.8-4.8-5.4-6.8   c-9.2,9.7-18.1,19-27.3,28.6c1.9,1.8,3.8,3.6,5.7,5.4c3.7-3.9,7-7.6,10.5-11.1c1.9-1.8,4.3-3.7,6.9-1c2.5,2.5,0.6,4.7-1.2,6.5   C1598,462.3,1594.5,465.7,1591.5,468.7z M1948.1,463.4c-0.4,0.1-0.9,0.3-1.3,0.4c-3.1-3.7-6.3-7.3-9.3-11.1   c-1.8-2.2-3.9-4.6-1.1-7.2c2.7-2.5,4.9-0.2,6.9,1.5c1.3,1.1,2.4,2.4,3.6,3.6c2.3,2.2,4.6,4.5,6.6,6.4c1.9-1.6,3.8-3.2,5.7-4.8   c-0.4,0.2-0.8,0.4-1.2,0.6c-4.1-4.6-7.8-9.6-12.3-13.7c-4.9-4.5-12.3-1.4-13.4,5.3c-0.1,0.9-0.1,1.8-0.3,3.5   c-4.3-4.4-8-8.2-11.9-12.3c-2,2.1-3.7,3.9-5.5,5.8c0.5-0.3,0.9-0.6,1.4-0.8c8.7,9.4,17.5,18.8,26.2,28.2   C1944.4,466.7,1946.2,465,1948.1,463.4z M1896,460.9c7.5,9.5,14.9,18.7,22.3,28.1c2.3-1.9,4.4-3.6,6.7-5.4   c-3.3-4.1-6.4-7.8-9.4-11.6c2-2,3.8-3.6,5.3-5.5c3.5-4.3,3.2-10-0.6-14.2c-3.3-3.7-8-4.1-12.7-0.8   C1903.6,454.5,1899.9,457.7,1896,460.9z M1896.7,503.4c-5.1-4.5-10-8.6-14.7-12.8c-4.8-4.3-9.6-8.7-15.2-13.8   c-1.1,2-2.7,3.6-2.7,5.1c0.4,8.3,1.1,16.5,1.8,24.8c0.3,3.8,0.6,7.5,0.9,11.4c4.8-1.7,4.8-1.7,4.2-6c-0.2-1.5-0.8-3.1-0.6-4.6   c0.1-1.2,0.9-2.7,1.8-3.3c7.7-4.6,7.8-4.6,14.2,1.6c0.3,0.3,0.6,0.8,1.1,1c0.7,0.2,1.6,0.5,2.2,0.2   C1892.1,505.9,1894.2,504.7,1896.7,503.4z M1744.9,45.5c-0.4,2.1-0.5,3.4-1,4.5c-1.4,3.3,0.5,4.7,3.2,4.7c3.7,0,7.5,0,11-1.1   c4.5-1.3,7-5,7.3-9.8c0.3-4.8-2-8.1-6.1-10.2c-2.3-1.2-4.9-2.1-7.2-3.4c-3.4-1.9-4.3-4.7-2.4-7.1c1.9-2.4,5.9-2.7,8.4-0.5   c0.9,0.8,1.6,1.7,2.7,2.9c0.7-2.3,1.2-4.1,1.9-6.6c-3-0.6-5.7-1.4-8.3-1.5c-6.2-0.1-10.6,3.3-11.8,8.5c-1.3,5.9,1,10.1,7.1,13   c2.2,1,4.6,1.7,6.4,3.3c1.3,1.2,2.6,3.7,2.1,5.1c-0.5,1.6-2.7,3.2-4.5,3.7C1749.8,52.4,1747.4,49.5,1744.9,45.5z M1865.4,39.3   c-3.4-4.8-8-6.7-13.5-6.3c-4.4,0.3-7.2,3-8.8,7c-2.1,5.1,0,9,3.5,12.7c1.6,1.6,3.2,3.3,4.3,5.3c1.9,3.3-0.3,7.2-4,7.2   c-3.4,0.1-6.2-2.1-7.2-5.5c-0.3-0.9-0.5-1.9-0.9-3.6c-1.7,2.7-3,4.6-4.9,7.5c4,1.8,7.4,3.9,11.1,4.9c5.5,1.5,10.6-0.8,13.1-5.1   c2.7-4.7,2-9.2-2.1-13.8c-1.5-1.7-3.2-3.3-4.6-5.1c-1.5-2-2.1-4.2-0.1-6.2c2-2,4.6-1.9,6.6-0.3c1.6,1.3,2.6,3.5,4.1,5.7   C1863,42.3,1864.1,40.9,1865.4,39.3z M1548.5,353c1.9-0.4,4.7,1.8,5.8-1.6c2-5.8-2.5-14.1-8.4-15.7c-6.7-1.8-12.5,2.2-13.9,9.5   c-0.5,2.7-1,5.5-2.1,8c-1.6,3.7-6.4,3.7-8.4,0.2c-1.6-2.8-1.8-5.7,0.5-8.4c0.6-0.7,1.2-1.5,2-2.5c-8-0.8-9.4,0.7-7.4,7.8   c0.6,2.3,1.6,4.6,2.9,6.6c2.7,4.1,6.7,5.8,11.6,4.9c4.8-0.9,7.4-4.1,8.5-8.8c0.6-2.7,1-5.4,1.8-8.1c0.6-2.3,2.2-3.9,4.7-3.6   c2.6,0.3,4.3,2.1,4.2,4.7C1550.2,348.2,1549.3,350.4,1548.5,353z M1809.7,58c2.6,0.5,5.1,0.9,7.6,1.4c1.1-5.5,2.1-10.7,3.1-15.8   c0.2-0.8,0.2-1.7,0.2-2.5c0.2-6.7-5.3-10.6-11.7-8.2c-0.9,0.3-1.7,0.8-2.4,1.1c-1.4-4.1-5.2-2.1-7.6-3.5c-1.5,8.5-3,16.6-4.4,24.9   c2.7,0.4,5.1,0.8,7.6,1.2c1-5.4,1.7-10.5,2.8-15.5c0.6-2.5,1.9-5,5.3-4.1c3,0.9,3,3.5,2.5,5.9C1811.7,47.8,1810.7,52.7,1809.7,58z    M1810.7,508.9c0.2,1.1,0.4,2,0.5,2.9c0.8,4.6,1.7,9.2,2.3,13.8c0.2,2.1-0.7,4.1-3.3,4.5c-2.6,0.4-3.7-1.3-4.3-3.4   c-0.3-1-0.5-2.1-0.7-3.2c-0.7-4.4-1.4-8.9-2.1-13.4c-2.8,0.5-5.1,1-7.6,1.4c0.8,5.2,1.6,10.3,2.5,15.4c0.2,1.2,0.5,2.4,0.9,3.5   c1.9,5.5,8.5,7.2,13.3,3.4c0.9-0.7,1.4-1.9,1.9-2.6c3.1,3.7,5.8,0.6,8.8,1.1c-1.5-8.5-2.9-16.6-4.3-24.9   C1815.8,508,1813.4,508.4,1810.7,508.9z M1962.8,441.6c6.5,0,13.1-6.8,13.1-13.4c-0.1-6.9-7.4-14-14.5-13.9   c-6.5,0-12.6,6.5-12.5,13.4C1948.9,434.8,1955.7,441.6,1962.8,441.6z M1901,96.1c-3.4-3.2-1.3-5.3,0.2-7.4   c1.7-2.6,3.6-5.2,5.2-7.8c2.8-4.6,2.2-8.7-2.3-11.6c-2.5-1.7-5.6-2.5-8.6-3.3c-2.4-0.6-3.9,0.5-3.8,3c2.4,0.6,5,0.8,6.8,2   c1.2,0.9,1.3,3.4,1.8,5.2c-1.5,0.3-3,1.1-4.5,0.9c-2.2-0.3-4.4-1.4-6.6-1.8c-3.5-0.5-6.1,1.1-7.5,4.3c-1.5,3.2-0.7,6.2,2.1,8   c2.3,1.5,5.1,2.1,8.2,3.2C1893.4,94.7,1895.1,96,1901,96.1z M1742.8,518c2-0.7,3.9-1.6,5.8-1.8c2.5-0.3,4.6,0.8,5,3.5   c0.4,2.7-1.8,3-3.6,3.4c-2.3,0.6-4.7,1-6.9,2c-3,1.3-4.2,3.9-3.8,7.1c0.3,3.1,2,5.5,5.1,5.7c3,0.2,6.1-0.6,9.7-1   c2.6,2.9,5.7,3.3,9.4-0.1c-4.2-0.9-3-4-2.9-6.7c0.2-3.5,0.5-7,0.6-10.5c0.1-3.6-1.8-5.9-5.1-7c-4.2-1.4-8.3-0.9-12.2,1.1   C1741.9,514.8,1741.5,516.2,1742.8,518z M1947.5,114.2c2.4,1.7,4.8,2.8,6.3,4.6c0.8,1,0.6,3.5-0.1,4.8c-1,2-2.8,1-4.3,0   c-2-1.3-4-2.8-6.1-3.8c-3.2-1.5-6.1-0.7-8.4,2c-2.3,2.7-2.3,5.7-0.2,8.2c1.8,2,4.3,3.4,6.9,5.4c0.1,4.4,1.8,6.6,6.5,7.1   c-1.5-3.2,0.6-4.8,2.8-6.5c2.4-1.8,4.7-3.7,7-5.7c4.6-4.1,5-8.2,0.9-12.9c-1.8-2-4.3-3.3-6.6-4.7   C1949.8,111.3,1948.1,112,1947.5,114.2z M1793,53.2c-4.4-0.4-3.9-2.9-3.7-5.2c0.2-3.2,0.6-6.5,0.7-9.7c0.2-6.3-2.2-9.3-8.5-9.8   c-2.7-0.2-5.6,0.8-8.4,1.6c-2.5,0.7-3,2.4-1.9,4.4c2.6-0.6,4.9-1.7,7.1-1.5c1.4,0.1,3.3,1.9,3.9,3.4c0.9,2.4-1.5,2.9-3.2,3.3   c-2.3,0.6-4.7,0.9-7,1.8c-3.4,1.3-4.5,4.2-4.1,7.6c0.4,3.3,2.5,5.4,5.7,5.5c2.7,0.1,5.5-0.8,8.8-1.3   C1785.5,56.1,1788.1,56.4,1793,53.2z M1713.5,59.2c-1.5-2.3-3-3.9-3.7-5.7c-1.2-3.1-1.8-6.5-2.8-9.7c-1.7-5.4-5.3-7.7-10.8-6.1   c-2.8,0.8-5.3,2.7-7.7,4.4c-2,1.4-2.1,3.3-0.2,4.7c2.1-1.4,3.9-3.3,6.1-3.8c1.4-0.3,3.4,1.3,5.1,2.1c-0.7,1.3-1.1,3-2.1,3.9   c-1.7,1.5-3.9,2.4-5.6,3.8c-2.7,2.3-3.2,5.2-1.8,8.5c1.4,3.2,4.2,4.6,7.3,3.7c2.7-0.8,5.1-2.6,8-4.2   C1708.8,62.6,1711.6,62,1713.5,59.2z M2008.1,369.5c-2.8-0.2-4.7,0.1-6.4-0.5c-3.4-1.2-6.6-2.9-10-4.3c-4.6-1.8-8.6-0.6-10.6,3.9   c-1.3,3-1.6,6.7-1.8,10.1c-0.2,2.6,1.6,3.1,3.4,2.6c0.2-2.4-0.2-4.8,0.7-6.6c0.7-1.5,2.9-3,4.5-3.1c2.6-0.1,2.4,2.5,2.2,4.4   c-0.2,2.3-0.7,4.5-0.6,6.8c0.1,3.4,2.4,5.9,5.7,6.5c3.4,0.6,6.2-0.5,7.4-3.7c0.9-2.5,1-5.4,1.4-8.5   C2008,375.5,2009.3,372.8,2008.1,369.5z M1883,71.9c4.6-7.1,3.4-13.3-2.7-16.7c-5-2.8-10-2.3-14.1,1.4c-4.5,4-6.5,11.2-4.6,16.1   c1.8,4.4,8.2,8.7,13,8.2c1.4-0.1,2.7-1.4,4.1-2.1c-10.2-2.3-12.8-6.3-8.5-13.1c2,1,4,2,6.1,3C1878.6,69.7,1880.7,70.7,1883,71.9z    M1544.3,387c7.6-2.2,10.8-7,9.1-13.4c-1.4-5.3-5.7-8.9-10.8-9.1c-6.5-0.3-13.2,3.9-15,9.3c-1.5,4.5,0.7,12.1,4.6,14.7   c1.2,0.8,3,0.7,4.5,1c-6.4-7.9-5.9-12.6,1.9-15.4C1540.5,378.3,1542.4,382.5,1544.3,387z M1671.8,61.1c4.3-1.9,8.7-3.8,13-5.6   c-1.5-5.9-5-9.4-9.6-9.7c-4.6-0.3-10.3,3.1-12,7.2c-2.3,5.5,0.4,14.2,5.6,17.7c4.6,3.1,12.2,2.3,16.6-2.3c1.2-1.3,1.5-3.4,2.2-5.1   c-0.3-0.1-0.7-0.2-1-0.4C1678.7,69.3,1674.7,68.9,1671.8,61.1z M1718.5,521.5c2-6.4,1.2-10.7-2.2-13.5c-3.5-2.9-9.8-3.5-13.7-1.4   c-5.3,2.8-8.4,11.5-6.3,17.7c1.8,5.2,8.7,9.1,14.7,8.1c2.2-0.4,4.2-1.1,4.3-3.9c-10.2,0.6-13.1-2.1-11-10.3   C1709.1,519.4,1713.8,520.4,1718.5,521.5z M1977.9,336c12.9,3.1,25.5,6.2,38.2,9.3c0.6-2.7,1.2-5,1.8-7.5   c-12.8-3.1-25.5-6.2-38.2-9.3C1979.1,331.1,1978.5,333.5,1977.9,336z M1710.2,20.9c2.5,12.5,5,25.2,7.6,38.2   c2.6-0.5,5.1-1.1,7.6-1.6c-2.6-13.1-5.2-25.8-7.7-38.5c-2.6,0.6-4.8,1-7,1.5C1710.5,20.5,1710.5,20.6,1710.2,20.9z M1829.8,523.1   c-0.7,6,0.5,7.3,5.5,6.4c1.9-0.3,3.7-1,5.4-1.9c3.7-1.9,5.1-5.4,4.3-9.4c-0.8-3.6-3.3-5.7-7.5-6.2c-1.8-0.2-3.7-0.2-5.3-0.8   c-1-0.4-2.3-1.7-2.3-2.6c0.1-1,1.4-2.4,2.4-2.6c1.4-0.2,2.9,0.5,4.3,1c0.9,0.3,1.6,1,2.4,1.5c0.4-0.2,0.7-0.5,1.1-0.7   c-0.5-1.7-0.6-4.6-1.7-5c-3.8-1.5-7.6-0.6-10.8,2c-2.8,2.4-3.3,5.5-2.4,8.9c1.1,3.9,4.3,5.2,8,5.7c1.3,0.2,2.7,0.1,3.9,0.6   c1.1,0.5,2,1.7,3,2.5c-1,1-1.8,2.5-3,2.7c-1.5,0.3-3.2-0.3-4.8-0.7C1831.6,524.5,1830.9,523.8,1829.8,523.1z M1616.9,489.2   c1.5,3.7,4.2,6,7.7,7.3c3.8,1.5,7.5,0.7,9.9-2.1c2.7-3.2,2.8-6.5,0.4-10.3c-1-1.6-2.3-3.1-3.1-4.9c-0.4-0.9,0-2.6,0.6-3.1   c0.7-0.5,2.6-0.5,3.2,0c1.1,1.1,1.8,2.7,2.4,4.1c0.4,0.9,0.2,1.9,0.4,3.8c2-1.7,3.3-2.9,5.4-4.6c-2.5-2.3-4.5-4.8-7-6.3   c-3.3-2.1-7.5-1.2-10,1.3c-2.9,2.9-3.3,6.3-1.1,10.2c0.7,1.4,1.9,2.6,2.4,4c0.5,1.3,0.3,2.8,0.4,4.2c-1.6-0.3-3.6-0.1-4.8-1   c-1.1-0.9-1.4-2.9-2-4.4c-0.3-0.7-0.4-1.4-0.8-2.8C1619.2,486.6,1618.1,487.9,1616.9,489.2z M1594,123.2c2.5,5.1,3.8,5.5,8.1,2   c1.4-1.1,2.6-2.5,3.5-4.1c2.2-3.4,1.8-7.2-0.6-10c-2.5-3-5.8-3.7-9.8-2c-1.7,0.7-3.3,1.7-5,2c-1,0.2-2.9-0.4-3.3-1.1   c-0.4-0.9,0.1-2.8,0.9-3.4c1.2-0.9,3-1,4.6-1.3c0.9-0.2,1.8-0.1,3-0.2c-2.8-5.4-4.3-5.7-8.6-2.3c-0.7,0.6-1.4,1.3-2,2.1   c-2.6,3.4-2.8,7.2-0.7,10.4c2.4,3.4,5.8,4.4,10.2,2.8c1.4-0.5,2.7-1.4,4-1.5c1.4-0.1,2.9,0.5,4.4,0.8c-0.6,1.4-0.9,3.5-2,4.1   C1598.9,122.5,1596.5,122.6,1594,123.2z M1971,145.7c0.2,0.4,0.4,0.7,0.6,1.1c1.5-1,4.1-1.8,4.3-3c0.5-3.7-1.4-6.7-4.3-9   c-2.7-2.1-5.7-2.5-8.8-1c-3.3,1.6-4.8,4.3-4.5,7.9c0.2,2.2,0.8,4.3,0.8,6.4c0,1.1-0.7,2.9-1.5,3.1c-0.9,0.3-2.8-0.5-3.2-1.4   c-0.8-1.5-0.9-3.3-1.1-5c-0.1-0.9,0.4-1.9,0.7-3.1c-5.6,0.8-6.6,2.1-4.6,6.4c1.2,2.4,3,4.7,5.1,6.4c2.8,2.2,6.1,1.9,9.1,0   c3-1.9,4.1-4.7,3.5-8.1c-0.3-1.8-1.2-3.5-1.1-5.3c0.1-1.4,1.1-2.7,1.8-4.1c1.2,1,3.2,1.7,3.5,2.9   C1971.8,141.7,1971.2,143.8,1971,145.7z M1549.6,421c3.2-2.2,6-4.1,8.8-6c5.9-3.8,7.1-3.5,10.7,2.6c2.1-1.3,4.2-2.6,7.5-4.6   c-3.4-1.7-6-3-8.6-4.3c0.5-0.4,1.4-1.1,2.4-2c-1.4-2.1-2.7-4.1-3.9-5.9c-7.2,4.7-14,9.1-21.1,13.6   C1546.8,416.5,1548.1,418.6,1549.6,421z M1987.1,354.4c8.1,2.5,16,5,24,7.6c0.8-2.6,1.6-5,2.3-7.3c-8.1-2.6-15.9-5.1-23.9-7.6   C1988.8,349.5,1988,351.8,1987.1,354.4z M1609.8,485.7c5.3-6.8,10.4-13.3,15.5-19.8c-2.2-1.7-4-3.2-6-4.8   c-5.2,6.6-10.3,13.1-15.6,19.9C1605.8,482.5,1607.7,484,1609.8,485.7z M1620.4,75.2c4.8,7,9.5,13.8,14.3,20.7   c2.2-1.5,4.2-2.9,6.4-4.4c-4.9-7-9.6-13.9-14.3-20.7C1624.6,72.4,1622.6,73.7,1620.4,75.2z M1540.6,406c7.7-4.2,14.9-8.1,22.2-12   c-1.3-2.4-2.5-4.6-3.7-6.8c-7.4,4-14.6,7.9-22.1,12C1538.2,401.5,1539.4,403.7,1540.6,406z M1979,343.4c-2.6,0.3-4.3,1.8-4.3,4.4   c0,2.7,1.7,4.3,4.3,4.2c2.6,0,4.2-1.6,4.2-4.3C1983.3,344.9,1981.6,343.7,1979,343.4z M1569.7,381.7c-2.8,0.1-4.4,1.5-4.5,4.2   c-0.1,2.6,1.4,4.2,4.2,4.3c2.8,0.1,4.3-1.5,4.4-4.1C1573.8,383.4,1572.2,382,1569.7,381.7z M1664.4,45.8c5-1.6,6.1-5.6,8.4-8.6   c1.2-1.6,1.5-3.8-0.6-4.5c-1-0.3-3.4,1-4,2.2C1666.7,38.2,1665.8,41.7,1664.4,45.8z M1621.9,457.3c-0.1,0.3-0.1,0.6-0.2,0.9   c1.2,0.6,2.3,1.5,3.5,1.7c2.5,0.4,5,0.8,7.5,0.6c1.3-0.1,2.4-1.6,3.7-2.4c-1.3-0.9-2.7-2.6-4-2.5   C1629,455.7,1625.5,456.6,1621.9,457.3z M1613.8,64.7c0,2.9,1.4,4.6,4,4.7c2.5,0.1,4.3-1.3,4.5-4.1c0.1-2.7-1.3-4.4-4-4.6   C1615.7,60.6,1614.1,62.2,1613.8,64.7z M1707.8,501.4c3.5,1.2,12.4-1,13.6-3c0.5-0.8,0.6-2.5,0.1-2.9c-0.8-0.7-2.6-1.4-3.4-0.9   C1714.8,496.5,1711.6,498.9,1707.8,501.4z M1876.8,50c4.6,2.5,8.4,1,12.1,0.7c2-0.2,3.8-1.3,3-3.4c-0.4-1-3-2-4.2-1.7   C1884.2,46.7,1881,48.3,1876.8,50z"></path>		<path d="M1423.6,233.1c0,33.3,0,66.1,0,99.4c-1.8,0-3.4,0-5,0c-164.6-0.2-329.1-0.4-493.7-0.7c-9.3,0-18.6-0.1-27.8,0   c-2.7,0-3.8-0.7-3.1-3.6c0.4-1.5,0.2-3.1,0.2-4.7c0-26.4,0-52.8,0-79.2c0-2.4-0.5-4.8-1-7.1c-0.6-2.6,0-4,2.9-4c1,0,1.9,0,2.9,0   c173.5-0.1,347-0.2,520.4-0.2C1420.6,233.1,1422,233.1,1423.6,233.1z"></path>		<path d="M399.5,480.8c-5.4-3.4-8.7-7.9-11-13.2c-5.6-13.1-11.2-26.3-16.7-39.5c-3.8-9-7.6-17.9-11.4-26.9c-0.4-0.9-0.9-1.8-2-2.6   c-0.6,4.1-1.2,8.2-1.8,12.3c-2.4,18.1-4.8,36.3-7.1,54.4c-0.6,5-0.7,9.9,4.9,13.6c-8.1,0-15.2,0-22.9,0c8.3-9.1,7.6-20.4,9.2-30.9   c2.6-17.1,4.8-34.3,7.1-51.5c0.7-4.8,1.4-9.7-4.4-13.4c8.9,0,16.8,0,24.7,0c9.9,23.3,19.9,46.7,29.9,70.1c0.3,0.1,0.6,0.2,1,0.2   c9.1-23.4,18.2-46.7,27.4-70.4c7.1,0,14.8,0,22.9,0c-4,4.2-3.3,9.1-2.7,14c2.6,18.7,5,37.4,7.5,56.2c0.6,4.3,1.1,8.6,1.7,12.9   c0.7,4.9,2.3,9.3,7.2,12.8c-9.5,0-17.9,0-26.8,0c5.9-4.3,4.8-10.3,4.2-16c-2.3-20-4.7-39.9-7.1-59.9c-0.2-1.5-0.5-3-1.5-4.7   C421.1,425.6,410.4,452.9,399.5,480.8z"></path>		<path d="M1161.3,66.9c6.5,0,13-0.1,19.4,0.1c0.8,0,1.9,1.2,2.2,2.1c8.4,22.1,16.7,44.3,25.1,66.5c0.2,0.7,0.6,1.3,1.4,2.8   c8.3-24.1,16.3-47.4,24.6-71.2c6.1,0,13.1,0,20.4,0c-3.9,4.3-3.1,9.2-2.5,14.2c2.6,21.3,5,42.6,7.6,63.8c0.8,6.4,0.7,13.1,7.2,18   c-8.6,0-16.2,0-24.3,0c4.8-3.5,4.8-8.4,4.3-13.3c-1.8-17.6-3.7-35.2-5.5-52.8c-0.5-4.6-0.9-9.3-1.4-13.9c-0.3-0.1-0.7-0.1-1-0.2   c-9.5,27.3-19,54.6-28.5,82.2c-5.4-4.1-8.3-9.4-10.5-15.2c-8-21.3-15.9-42.6-23.9-63.9c-0.4-1.1-0.9-2.1-2.1-3.1   c-0.6,4.3-1.2,8.6-1.7,12.9c-2.1,18.3-4.3,36.6-6.3,54.9c-0.5,4.5-0.1,8.9,4.5,12.3c-7.1,0-13.5,0-20.3,0   c7.7-10.1,6.8-22,8.4-33.3c2.3-16.8,4-33.7,6.2-50.5C1165.1,74.8,1164.7,70.8,1161.3,66.9z"></path>		<path d="M938.7,379.8c25.2,0.2,46.1,15.6,51.6,38c7,28.7-11.6,57.3-41,62.5c-21.4,3.8-40.2-1.3-54.2-18.4   c-22.3-27.3-9.4-67.7,24.8-78.9c2.7-0.9,5.6-1.6,8.4-2.1C931.8,380.3,935.3,380.1,938.7,379.8z M938,390.5   c-11,0.1-20.5,3.9-27,10.9c-17.1,18.5-12,52.2,9.8,64.9c20,11.6,45.5,2,52.4-19.8c4.4-14.3,2.4-28-5.9-40.4   C960.4,395.7,950.5,390.4,938,390.5z"></path>		<path d="M806.7,478.9c-8.9,0-17.3,0-26.3,0c5.2-3.9,5.8-9.2,5.8-14.5c0.1-22.1,0.2-44.1,0.1-66.2c0-5.4-0.3-10.9-5.6-15.2   c8.8,0,17,0,25.6,0c-5.3,4.4-5.4,10.4-5.5,16.4c-0.1,6.4,0,12.8,0,19.2c0,1.8,0.4,2.9,2.6,2.9c16.4-0.1,32.8,0,49.2-0.1   c0.5,0,0.9-0.2,2.2-0.5c-0.4-10.3-0.6-20.6-1.3-30.8c-0.2-2.4-2.4-4.7-3.7-7.2c8,0,16.2,0,25,0c-4.7,3.8-5.5,8.8-5.5,14.1   c0,22.7,0,45.3,0,68c0,5.2,0.7,10.1,5.8,13.9c-9,0-17.2,0-26.1,0c6-5.2,5.5-12.1,5.5-18.7c0-8.3-0.1-16.6,0-25   c0-2.5-0.7-3.4-3.3-3.3c-15.7,0.1-31.3,0.1-47,0c-1.8,0-3.4,0-3.4,2.5c0.2,11.1,0.2,22.2,0.4,33.2   C801.3,471.9,802.8,475.8,806.7,478.9z"></path>		<path d="M51.7,165.7C28,165.7,8.1,147.8,5,124.2c-2.2-17.1,1.4-32.4,13.3-45.1c12.9-13.7,29-17.8,46.9-13   C83,70.8,93.5,83.5,98,100.9c6,23.1-3.3,46.7-22.6,58.5C68.1,163.7,60.2,165.9,51.7,165.7z M19,114.7c-0.1,8.3,2.3,17.6,7.9,25.9   c6.4,9.6,15.3,15.4,27.2,14.7c12.4-0.7,21.6-6.9,26.5-18.2c7.8-18,6-35.5-5.8-51.1C64,71.8,42.7,70.9,30,83.7   C22,91.8,19.1,101.9,19,114.7z"></path>		<path d="M277.4,163.3c5.9-5.4,5.7-11.9,5.7-18.3c-0.1-22.4-0.1-44.8-0.2-67.2c0-4-1.1-7.6-4.4-10.2c0.2-0.3,0.3-0.6,0.5-0.6   c15,0.3,30.1-1.8,45,1.7c19.7,4.7,32.2,20.2,33.2,40.4c0.5,10-0.4,19.7-5,28.8c-8,15.9-21.3,24-38.6,25.2   C302,164,290.2,163.3,277.4,163.3z M296.2,115.5c0,11,0.1,21.9-0.1,32.9c-0.1,3.4,1.3,4.5,4.3,4.5c3.7,0,7.5,0.4,11.2-0.1   c11.9-1.5,21.5-6.9,27-17.9c4.6-9.1,4.8-18.8,3.3-28.6c-1.1-7-3.3-13.6-8.3-18.9c-9.9-10.3-22.2-11.4-35.4-8.9   c-2.4,0.4-2.1,2.1-2.1,3.8C296.2,93.3,296.2,104.4,296.2,115.5z"></path>		<path d="M816.4,163.3c-8.1,0-14.9,0-22.2,0c0.6-0.8,1-1.4,1.5-1.9c3.1-2.9,4.5-6.6,4.5-10.7c0-23.7,0-47.5,0-71.2   c0-4.8-2-8.8-6.8-12.5c6.6,0,12.2-0.1,17.7,0.1c0.7,0,1.6,1.3,2.1,2.1c16.2,23.2,32.5,46.4,48.7,69.6c0.4,0.5,0.9,1,2.1,2.4   c0-2.3,0-3.6,0-4.8c0-17.1,0-34.2,0-51.4c0-6.6,0.2-13.1-6.9-17.8c8.1,0,15.1,0,23,0c-6.9,4.9-6.9,11.6-6.9,18.2   c-0.1,25.9,0,51.8,0,77.8c0,1.4,0,2.9,0,4.7c-6.4-1.9-11-5.7-14.5-10.6c-8-11.2-15.9-22.4-23.7-33.7   c-7.5-10.7-15.1-21.5-22.6-32.3c-0.6-0.9-1.3-1.6-2.6-3.3c-0.1,2.2-0.2,3.4-0.2,4.7c0,18.1,0,36.2,0,54.3   C809.5,152.9,810.2,158.7,816.4,163.3z"></path>		<path d="M262.7,382.7c7.6,0,13.9,0.1,20.3,0c2.2,0,2.8,1.1,3.5,2.8c10.3,25.4,20.6,50.8,30.9,76.3c2.6,6.4,5.5,12.6,12.4,17   c-9.9,0-18.9,0-28.9,0c6.3-2.9,4.6-7,3-11.2c-2.8-7.3-5.7-14.6-8.4-21.9c-0.8-2.1-1.8-3-4.1-3c-10.4,0.1-20.7,0.1-31.1,0   c-1.8,0-3.1,0.1-3.9,2.3c-2.7,7.7-5.7,15.3-8.3,23.1c-1.9,5.5-1.2,7.1,3.4,10.8c-8.4,0-16.4,0-25.4,0c8.5-5.1,10.9-13.4,14.1-21.3   c8.1-20.3,16.3-40.7,24.4-61c0.6-1.6,1.2-3.1,1.7-4.7C267.3,388.4,267,385.3,262.7,382.7z M290.1,431.9c-4.8-12.2-9.4-24.1-14-36   c-0.3,0-0.6,0-0.9-0.1c-4.7,11.9-9.4,23.8-14.2,36C271,431.9,280.3,431.9,290.1,431.9z"></path>		<path d="M1350.2,478.8c-9.1,0-18.1,0-27.4,0c4.7-4.3,4.8-4.7,2.5-10.7c-2.8-7.5-5.8-15-8.6-22.6c-0.8-2.1-1.9-3-4.2-2.9   c-10.4,0.1-20.7,0.1-31.1,0c-2.1,0-3.3,0.5-4,2.6c-2.6,7.5-5.5,14.9-8.1,22.4c-2,5.7-1.5,7.2,3.1,11.2c-8.2,0-16.2,0-24.9,0   c11-7.7,12.8-19.9,17.3-30.5c7.1-17,13.8-34.1,20.6-51.2c0.6-1.6,1.2-3.1,1.8-4.7c1.1-3.4,1.5-6.7-2-9.6c6.8,0,13.5-0.1,20.3,0.1   c0.9,0,1.9,1.9,2.4,3.1c7.6,18.5,15,37,22.5,55.5c3.1,7.6,6.2,15.1,9.2,22.7C1341.9,469.9,1344.9,475,1350.2,478.8z M1311.3,431.9   c-4.8-12.4-9.5-24.3-14.5-37.2c-5.1,12.9-9.8,24.9-14.6,37.2C1292.1,431.9,1301.3,431.9,1311.3,431.9z"></path>		<path d="M602.4,399.5c-5.7-4.7-11.4-7.5-18-8.5c-6.2-1-12.3-0.5-17.9,2.6c-7,3.9-8.8,12.9-2.9,18.3c4.4,4.1,10,7,15.3,10   c6.5,3.6,13.4,6.5,19.8,10.3c6.1,3.5,10.8,8.5,11.8,16c1.2,8.6-2,15.6-7.9,21.5c-9.4,9.4-21.3,12.5-34.1,11.8   c-6.5-0.4-13-2-19.5-3.1c-2.7-0.4-4.1-1.7-4.5-4.6c-0.7-4.6-2-9.1-3.3-14.4c7.1,5.4,14.2,9,22.2,10.8c7.7,1.7,15.3,1.7,22.5-2.2   c10.5-5.6,11.7-16.9,2.1-24c-4.9-3.6-10.7-5.9-16-8.9c-6.5-3.6-13.4-6.7-19.4-11c-12.3-8.9-12.8-30.7,4.5-38.8   c14.2-6.7,28.9-5.9,43.7-2.1c0.7,0.2,1.6,1.7,1.6,2.6C602.5,389.9,602.4,394.3,602.4,399.5z"></path>		<path d="M2.9,459.2c8.4,6.4,17,10.3,26.6,11.6c6.7,0.9,13,0,18.8-3.4c9.1-5.1,10.6-15.4,2.7-22.3c-3.8-3.4-8.6-5.7-13.1-8.1   c-6.7-3.6-13.7-6.4-20.2-10.3C10,422,5.4,415.1,5.5,405.5c0.1-8.5,3.8-14.8,10.9-19.1c9.3-5.6,19.7-6.8,30.3-6   c4.9,0.3,9.7,1.5,14.6,2.2c2,0.3,2.9,1.1,2.8,3.3c-0.2,4.2-0.1,8.4-0.1,13.2c-1.1-0.7-1.8-1.1-2.6-1.7c-8.4-6-17.6-8.4-27.7-6.1   c-5.5,1.3-10.3,3.9-11.6,10c-1.3,6.1,1.6,10.7,6.5,13.8c5.2,3.3,10.8,5.9,16.2,8.7c5.6,3,11.6,5.5,16.8,9.1   c12.8,8.6,14.4,22.8,4.4,34.6c-6.6,7.8-15.4,11.9-25.3,13.3c-10.4,1.5-20.6,0.2-30.7-2.7c-2.2-0.6-3.4-1.6-3.8-4.1   C5.5,469.4,4.2,464.8,2.9,459.2z"></path>		<path d="M1058.2,399.4c-7.6-6.2-15.6-9.3-24.6-8.8c-3.2,0.2-6.5,0.9-9.4,2.1c-9.1,3.8-10.9,13.9-3.5,20.5   c3.3,2.9,7.3,5.1,11.2,7.2c5.4,2.9,11.2,5.1,16.6,8c3.7,2,7.4,4.2,10.6,6.9c8.2,6.9,10.1,16.4,5.4,26.1   c-5.2,10.7-14.5,16.2-25.6,18.8c-11.9,2.7-23.7,1.1-35.3-2.3c-1.1-0.3-2.3-1.5-2.6-2.5c-1.3-5-2.3-10-3.6-15.7   c1.2,0.8,2,1.2,2.6,1.7c8.9,6.3,18.7,10.2,29.7,9.6c4.5-0.2,9.3-1.7,13.3-3.9c9.2-5.1,10.2-15.4,2.1-22.2c-3.9-3.3-8.7-5.6-13.2-8   c-5.7-3-11.8-5.5-17.5-8.6c-6.3-3.4-11.4-8.2-13.6-15.3c-3.9-12.4,1.9-23.9,14.8-29c13.4-5.3,27.1-4.7,40.8-1   c0.8,0.2,1.8,1.6,1.8,2.4C1058.3,389.8,1058.2,394.2,1058.2,399.4z"></path>		<path d="M719.8,399.2c-7.8-6.2-15.9-9.3-25-8.5c-3.2,0.3-6.5,1-9.4,2.3c-8.6,3.9-10.3,13.5-3.4,19.8c3.7,3.3,8.2,5.8,12.7,8.2   c4.6,2.5,9.6,4.4,14.3,6.8c3.5,1.8,7,3.8,10.1,6.2c10.9,8.4,12.4,21.5,3.9,32.4c-6.8,8.6-16,13-26.6,14.5   c-10.3,1.4-20.4,0.1-30.3-2.7c-2.2-0.6-3.4-1.6-3.9-4c-0.9-4.7-2.1-9.4-3.3-14.7c2.1,1.4,3.7,2.6,5.4,3.6   c10,5.9,20.5,9.7,32.3,7.2c3.5-0.8,7.1-2.5,10-4.6c6.9-5.2,7.5-14,1.1-19.7c-4.1-3.7-9.3-6.3-14.2-9.1   c-6.6-3.7-13.7-6.6-20.2-10.4c-6.7-4-10.9-10-11.9-18c-1.2-9.6,3.6-18.7,13.1-23.2c14.1-6.7,28.7-6.1,43.4-2.3   c0.8,0.2,1.8,1.6,1.8,2.5C719.9,389.7,719.8,394.1,719.8,399.2z"></path>		<path d="M521.7,163.3c-8.3,0-16.3,0-25.5,0c6.2-3,4.5-7.2,3-11.4c-2.5-7.3-5-14.6-7.3-21.9c-0.7-2.2-1.8-2.9-4.1-2.9   c-9,0.1-18.1,0-27.1,0.2c-1.2,0-3.1,1-3.4,2c-2.8,7.9-5.3,16-7.8,24c-1.1,3.7-0.9,7.2,3.7,9.8c-7.9,0-15.1,0-22.9,0   c7.6-5.3,9.6-13.3,12.3-21c7.4-21,14.9-41.9,22.3-62.9c1.4-4.1,3.3-8.4-2.2-12.3c6.9,0,12.9-0.1,19,0.1c0.8,0,1.8,1.7,2.2,2.8   c8.5,23.5,16.9,47.1,25.5,70.5c2,5.6,4.4,11.2,7.1,16.5C517.4,159.2,519.6,160.9,521.7,163.3z M487.1,116.4   c-4.2-12.3-8.4-24.2-12.5-36.1c-0.3,0-0.6,0-0.8,0.1c-4.1,11.9-8.3,23.9-12.5,36.1C470.1,116.4,478.3,116.4,487.1,116.4z"></path>		<path d="M728.8,66.9c6.6,0,12.4-0.1,18.1,0.1c1.1,0.1,2.5,1.6,3,2.8c7.9,21.7,15.6,43.4,23.4,65.1c2,5.5,3.7,11.2,6.2,16.5   c2,4.2,5,7.9,7.4,11.7c-7.4,0-15.5,0-24.6,0c5.4-2.7,4.8-6.3,3.4-10.2c-2.7-7.7-5.4-15.4-7.9-23.2c-0.7-2.2-1.9-2.7-3.9-2.6   c-9,0.1-18.1,0.1-27.1,0c-2.2,0-3.2,0.6-3.9,2.7c-2.2,7.4-4.7,14.6-7,22c-1.7,5.7-1.3,7.3,2.7,11.4c-7.3,0-14.5,0-22.4,0   c8.9-6.4,10.5-16.2,13.7-25.1c7.1-19.8,14.1-39.6,21.1-59.5C732.5,74.7,733.7,70.6,728.8,66.9z M727.3,116.3c8.8,0,17,0,25.8,0   c-4.2-12.2-8.3-24.1-12.4-36c-0.3,0-0.6,0-0.9,0C735.7,92.2,731.6,104.1,727.3,116.3z"></path>		<path d="M1148.7,163.3c-9.1,0-17.2,0-26.3,0c5.5-2.7,4.7-6.6,3.4-10.5c-2.6-7.6-5.3-15.2-7.8-22.9c-0.7-2-1.6-2.8-3.8-2.8   c-9.2,0.1-18.3,0-27.5,0.2c-1.2,0-3,1.2-3.3,2.2c-2.7,7.6-5.2,15.3-7.5,23c-1.6,5.4-1.1,6.7,2.8,10.8c-7.3,0-14.4,0-22.3,0   c7.2-5.2,9.3-12.6,11.9-19.9c7.2-20.5,14.6-41,21.8-61.5c0.7-1.9,1.2-3.9,1.8-5.8c1.1-3.3,0.8-6.2-2.2-9.1c4.5,0,8.9,0,13.4,0   c7.1,0.1,5.4-0.9,7.7,5.5c9.1,25,18,50,27,75C1139.9,153.4,1142.5,159,1148.7,163.3z M1113.2,116.4c-4.3-12.4-8.4-24.2-12.4-36   c-0.3,0-0.6,0-0.9,0c-4.1,11.9-8.3,23.7-12.5,36C1096.2,116.4,1104.3,116.4,1113.2,116.4z"></path>		<path d="M1290.6,163.3c-8.1,0-15.1,0-22.9,0c10.1-7.9,11.4-19.6,15.3-30c6.6-17.5,12.6-35.3,18.9-53c0.5-1.4,0.8-2.8,1.3-4.1   c1.2-3.4,0.8-6.4-3.2-9.2c7,0,12.9-0.1,18.8,0.2c0.9,0,2.1,2,2.6,3.3c8.1,22.4,16.1,44.8,24.2,67.2c1.5,4.3,2.8,8.7,4.8,12.8   c2.3,4.5,5.2,8.7,7.8,12.8c-7.2,0-15.4,0-24.7,0c5.9-2.5,4.9-6.3,3.6-10.3c-2.6-7.7-5.4-15.4-7.9-23.2c-0.6-2-1.7-2.5-3.6-2.5   c-9.2,0.1-18.3,0-27.5,0.1c-1.2,0-3,1.1-3.4,2.1c-2.8,8.1-5.2,16.2-7.9,24.3C1285.6,157.5,1286.5,160.6,1290.6,163.3z    M1298.7,116.4c8.9,0,17,0,25.9,0c-4.2-12.2-8.3-24.1-12.4-35.9c-0.3,0-0.7,0.1-1,0.1C1307,92.3,1302.9,104.1,1298.7,116.4z"></path>		<path d="M490.8,421.2c8.3,0,16,0,24,0c0,4.7,0,9.3,0,14c-7.4-5.5-15.6-2.6-24-3.5c0,2.6,0,4.7,0,6.8c0,8.4,0,16.9,0,25.3   c0,1.7,0,3.3,2.2,3.4c8.7,0.4,17.6,1.6,26.2,0.7c5.9-0.6,11.6-4.1,17.2-6.2c-1.7,4.8-3.6,10.5-5.6,16c-0.2,0.6-1.5,1.2-2.2,1.2   C509.3,479,490,479,470,479c5.6-4.4,6-10.2,6-16c0-21.5,0.1-42.9,0-64.4c0-5.7-0.3-11.4-6.2-15.9c18.3,0,35.7,0,53.5,0   c0,4.8,0,10,0,15.7c-8.6-7.4-18.8-5.6-28.8-5c-2.7,0.2-3.8,0.9-3.8,3.8C491,405.1,490.8,412.9,490.8,421.2z"></path>		<path d="M1107.6,478.9c-10,0-18.8,0-28.2,0c6.4-5.3,5.8-12.2,5.8-19c0-19.4,0-38.8,0-58.2c0-1.8,0-3.6-0.1-5.4   c-0.3-4.9-1-9.6-5.6-13.3c1.5-0.1,2.4-0.3,3.3-0.3c11,0,21.9,0,32.9,0c6.5,0,12.7,1.2,18.5,4.1c15.3,7.8,18.4,27.1,6.1,39.2   c-9.5,9.3-21,11.2-34.4,8.5c4.5-1.5,8.3-2.3,11.8-3.9c9.9-4.5,14.6-12.9,13.2-22.9c-0.8-6.2-4.2-10.4-9.9-12.8   c-6.4-2.6-13-2.4-19.5-1.2c-0.8,0.2-1.8,2.3-1.8,3.5c-0.1,14.2-0.1,28.5-0.1,42.7c0,8.3,0.3,16.6,0.3,24.9   C1100,470.5,1101.7,475.2,1107.6,478.9z"></path>		<path d="M921.1,143.6c7.6,6.7,15.6,10.6,25,11.7c5.5,0.6,10.6-0.5,15.2-3.5c8.6-5.6,9.4-16.6,1.5-23.4c-3.5-3-7.7-5.3-11.8-7.6   c-5.4-3.2-11.1-5.8-16.3-9.3c-9.5-6.5-13.2-15.7-10.8-27.1c2.2-10.7,10-15.8,19.7-18.4c9.7-2.6,19.4-1.9,28.9,0.9   c1,0.3,2.4,1.5,2.4,2.4c0.2,4.5,0.1,9,0.1,13.6c-3.6-2.1-6.7-4.3-10.1-5.8c-6.1-2.7-12.4-2.9-18.6-0.5   c-8.7,3.4-11.5,13.7-4.9,20.3c4.2,4.2,9.6,7.1,14.7,10.3c5.4,3.4,11.3,6,16.4,9.7c11.6,8.5,13.6,22.2,5.4,34.1   c-5.9,8.5-14.3,13.3-24.4,14.5c-8.8,1.1-17.5,0-26-2.8c-2.1-0.7-3-2-3.4-4.1C923.2,153.8,922.2,149.1,921.1,143.6z"></path>		<path d="M1416.2,83.9c-7.1-6.6-14.6-9.5-23.4-8.8c-8.7,0.8-14.4,6.4-14,14c0.2,4.5,2.5,8.1,6.1,10.6c4.8,3.2,9.9,6,14.8,8.9   c4.8,2.9,10,5.4,14.4,8.8c10.2,7.8,12.4,19.7,6.2,30.9c-5.6,10.1-14.6,15.5-25.8,17c-8.8,1.2-17.5,0.1-26-2.8   c-2-0.7-3.2-1.6-3.5-3.9c-0.7-4.6-1.8-9.2-3-14.8c1.8,1.4,2.9,2.2,3.9,3c8.6,6.1,17.9,10.1,28.7,8c10-1.9,15.6-9.1,14.1-17.6   c-0.9-5.3-4.2-9-8.5-11.6c-6.1-3.6-12.6-6.6-18.6-10.4c-4.1-2.6-8.2-5.5-11.6-9c-8.9-9.2-9.3-30.8,8.7-38.3   c11.7-4.8,23.5-4.4,35.3-0.9c0.9,0.3,2,1.5,2,2.4C1416.3,74,1416.2,78.5,1416.2,83.9z"></path>		<path d="M104.7,143.9c6.5,5.3,12.9,9,20.3,10.7c7.1,1.6,13.9,1.2,20.1-3c7.8-5.3,9.1-15.3,2.3-21.8c-3.8-3.7-8.7-6.3-13.3-9.1   c-6-3.8-12.5-6.8-18.2-11c-13.3-9.7-13.5-35.3,7.4-42.4c11-3.8,22-3.3,33-0.2c1,0.3,2.3,1.6,2.3,2.5c0.2,4.4,0.1,8.9,0.1,12.8   c-5.1-2.3-9.9-5.4-15.2-6.6c-4.2-1-9.2-0.6-13.4,0.8c-9.5,3.1-12,13.7-4.9,20.8c3.7,3.7,8.5,6.3,13,9c5.2,3.2,10.9,5.7,16,9.1   c18.6,12,13,31.3,2.6,40.9c-9.8,9-21.6,10.7-34.1,8.9c-14.3-2-14.3-2.3-17.1-16.4C105.3,147.5,105.1,146.1,104.7,143.9z"></path>		<path d="M682.9,83.8c-7.1-6.7-14.6-9.5-23.4-8.6c-8.7,0.8-14,6.3-13.7,14.1c0.2,4,2,7.4,5.1,9.6c5.4,3.7,11.2,7,16.9,10.4   c4,2.4,8.3,4.5,12,7.3c12.4,9,14.3,23.2,5.2,35.4c-5.9,8-14.1,12.4-23.8,13.5c-8.8,1.1-17.5,0-26-2.9c-1.9-0.6-3-1.6-3.3-3.7   c-0.8-4.8-1.9-9.6-3-15.2c7.5,6.5,15.4,10.4,24.6,11.6c5.2,0.7,10.1-0.3,14.6-2.9c9.3-5.4,10.8-16.1,2.9-23.3   c-4-3.7-9.1-6.2-13.8-9.1c-5.4-3.3-11.3-6.1-16.3-9.8c-8.6-6.4-11.2-15.4-9.2-25.7c1.9-9.5,8.5-14.8,17.2-17.7   c10.5-3.5,21.1-2.8,31.6,0.2c0.9,0.3,2.2,1.7,2.2,2.6C683,74,682.9,78.5,682.9,83.8z"></path>		<path d="M367.1,67c16.2,0,31.7,0,47.5,0c0,5,0,10.1,0,15.6c-8-7.3-17.4-5.4-26.5-4.5c-0.8,0.1-2,1.6-2,2.5   c-0.2,8.2-0.1,16.4-0.1,24.9c7.1,0,14,0,21.1,0c0,4.6,0,9,0,13.8c-6.5-5-13.8-2.2-20.9-3.1c0,12,0,23.3,0,35   c14.1,1.9,28.1,5.3,40.4-5.8c-1.7,5.5-3.3,11-5.1,16.4c-0.2,0.7-1.5,1.6-2.3,1.6c-17.1,0.1-34.2,0.1-51.8,0.1   c4.6-4,5.3-8.9,5.3-14c0-22.8,0-45.5,0-68.3C372.6,75.9,372,71,367.1,67z"></path>		<path d="M201.5,118.2c12.5-2.2,19.8-8.9,21.7-19.5c2.1-12-5.2-21.1-17.4-21.4c-10.3-0.3-10.3-0.3-10.3,9.8c0,19.9,0,39.8,0,59.6   c0,6.1,0.4,12.1,6.7,16.4c-8.6,0-16.5,0-24.9,0c4.6-3.8,5.1-9,5.1-14.3c0-23-0.1-46-0.1-69c0-4.7-1-9.1-5-12.8   c1.6-0.1,2.7-0.2,3.7-0.2c10.8,0.1,21.7-0.2,32.5,0.5c15.6,1,24.9,11.6,24.4,26.9c-0.4,13.8-12.2,25.3-26.4,25.6   c-3.4,0.1-6.8-0.5-10.2-0.7C201.4,118.9,201.5,118.5,201.5,118.2z"></path>		<path d="M1052.7,145.5c-1.7,5.5-3.3,11-5.1,16.4c-0.2,0.7-1.5,1.4-2.3,1.4c-17,0.1-34,0.1-51.7,0.1c5.6-4.9,5.4-11.1,5.4-17   c0.2-20.7,0.2-41.5,0-62.2c-0.1-5.9,0.3-12.2-5.5-17.2c16.1,0,31.5,0,47.2,0c0,4.9,0,10,0,15.5c-7.9-7.4-17.3-5.4-26.4-4.5   c-0.9,0.1-2.2,1.5-2.3,2.3c-0.2,8.3-0.1,16.6-0.1,25.2c7.3,0,14.3,0,21.5,0c0,4.6,0,9.3,0,14.2c-6.3-5.7-13.9-2.5-21.2-3.5   c0,11.8,0,23.3,0,35C1026.2,153.1,1040.3,156.6,1052.7,145.5z"></path>		<path d="M1234.4,478.9c-9.9,0-18.6,0-28,0c4.6-3.5,5.6-8.2,5.6-13.1c0-23.5,0-47,0-70.5c0-0.7-0.2-1.4-0.3-2   c-9.3-1.8-18.7-0.3-30.3,4.8c1.6-5.5,3.1-10.7,4.7-15.9c23.8,0,47.5,0,71.5,0c-1.4,5.2-2.8,10.5-4.4,16.4c-3.9-5.7-9.4-5.9-15-5.8   c-3.7,0.1-8.6-1-10.7,1c-1.9,1.7-0.7,6.8-0.7,10.4c0,19.8,0,39.5,0,59.3C1226.9,469.4,1228.2,474.7,1234.4,478.9z"></path>		<path d="M72.3,399c1.9-6.4,3.5-11.8,4.9-16.8c23.9,0,47.5,0,71.5,0c-1.4,5.3-2.8,10.6-4.4,16.5c-3.1-4.9-7.6-5.7-12.2-5.9   c-3.9-0.2-7.7,0-11.6-0.1c-2.1-0.1-2.8,0.8-2.8,2.8c0.1,23.5,0.3,47,0.3,70.5c0,5.3,2.3,9.4,7.2,12.8c-9.7,0-18.5,0-27.9,0   c5.6-4.3,5.8-10.1,5.8-15.9c0.1-21.9-0.1-43.9,0-65.8c0-3.5-1-4.8-4.5-4.4c-2.1,0.2-4.3,0.1-6.5,0C85.4,392.7,78.8,393.8,72.3,399   z"></path>		<path d="M1425.6,460.8c-2.1,5.5-4.2,11-6.4,16.4c-0.3,0.8-1.8,1.7-2.7,1.7c-18.9,0.1-37.8,0.1-57.5,0.1c5.1-4.1,5.8-9.2,5.8-14.6   c0-22.4,0-44.9,0-67.3c0-5.2-0.6-10.2-5.5-14.1c8.8,0,17,0,25.8,0c-4.9,4-5.5,9.2-5.5,14.5c0,21.9,0,43.9-0.1,65.8   c0,3,0.6,4.3,3.9,4.3c5.2,0,10.3,0.7,15.5,1.1C1408.7,469.5,1417.4,466.4,1425.6,460.8z"></path>		<path d="M182.2,512.4c0.5-0.4,1-0.9,1.6-1.3c11.3-7.1,15.8-17.6,15.7-30.6c-0.1-27.7,0-55.4-0.1-83.2c0-5.3-0.6-10.6-5.8-14.5   c9,0,17.3,0,26.2,0c-5.5,4.3-5.7,10-5.7,15.6c-0.1,29,0,58.1,0,87.1c0,11.7-4.5,18.9-15.4,23.1c-5.2,2-10.7,3.1-16.1,4.6   C182.4,513,182.3,512.7,182.2,512.4z"></path>		<path d="M588.7,144.4c-2.1,6.1-3.9,11.6-5.9,17c-0.3,0.9-1.6,1.9-2.4,1.9c-16.8,0.1-33.6,0.1-51.2,0.1c4.7-3.9,5.4-8.8,5.4-13.8   c0.1-22.9,0.1-45.8,0-68.7c0-5-0.7-9.9-5.4-13.8c8,0,15.4,0,23.4,0c-4.7,4.3-5.1,9.7-5.1,15c0,22.1,0.1,44.1,0.1,66.2   c0,2.8,0.8,3.8,3.7,3.9c4.9,0.1,9.8,0.7,14.8,1.1C572.5,153.9,579.4,151.3,588.7,144.4z"></path>		<path d="M1181,478.9c-9,0-17.2,0-26,0c5.9-5.4,5.5-12.2,5.5-18.8c0-20.8,0-41.7,0-62.5c0-5.3-0.4-10.6-5.7-14.7c9,0,17.2,0,25.9,0   c-5,4.1-5.4,9.5-5.4,15.1c0,22.2,0,44.3,0,66.5C1175.3,469.8,1175.8,474.9,1181,478.9z"></path>		<path d="M267.7,67.2c-4.2,3.2-5.2,7.4-5.2,11.8c-0.1,24.1-0.1,48.2,0,72.3c0,4.4,1,8.6,5.2,11.9c-8,0-15.4,0-23.3,0   c5.4-5.3,5-12,5-18.5c0-20.5,0-41,0-61.5c0-2.6,0-5.4-0.7-7.9c-0.8-2.8-2.3-5.4-3.5-8.2C252.1,67.2,259.6,67.2,267.7,67.2z"></path>		<path d="M628.9,407c2.1-2.9,4.3-5.7,6.4-8.7c1.4-2,1.4-3.6-1.6-4.4c-4.8-1.3-6.7-4.2-6.2-8.3c0.5-3.8,3.6-6.8,7.5-7.1   c4.5-0.3,8.7,2.3,9.5,6.6c0.5,2.7,0.5,6-0.6,8.4c-2.2,4.7-5.2,9.1-8.3,13.4C633.6,409.4,631.8,409.2,628.9,407z"></path>		<path d="M383.5,60.5c8.7-7,17.4-14,26.4-21.2c2.3,3.5,4.5,6.7,7,10.5c-11.3,3.9-22.3,7.6-33.2,11.3   C383.6,60.9,383.6,60.7,383.5,60.5z"></path>		<path d="M1035.9,39.3c2.5,3.6,4.6,6.8,7.1,10.5c-11,3.8-21.7,7.4-32.4,11.1c-0.2-0.3-0.3-0.5-0.5-0.8   C1018.6,53.3,1027.1,46.5,1035.9,39.3z"></path>		<path class="st1" d="M1559.5,280c-0.6-110.7,89.1-206.6,206.6-206.7c116-0.1,208.4,94.5,206.8,209.8   c-1.6,111.2-91.6,203.7-206.8,203.6C1648.4,486.7,1558.9,390.6,1559.5,280z M1688.7,364.2c4.9-6.5,4.4-14.1-1.5-18.4   c-2.5-1.9-5.7-3.3-8.8-4c-6.1-1.3-12.4-1.7-18.6-2.8c-1.5-0.2-3.2-1-4.2-2.1c-4.3-4.8-6.2-10.7-7.1-17c-0.6-4.1,1.2-7,4.1-8.9   c1.8-1.2,4.9-1.5,7-1c1.1,0.3,1.6,3.3,2.2,5.2c0.3,1.1,0.1,2.4,0.1,3.6c0.3,0.2,0.7,0.3,1,0.5c1.2-1.5,2.3-3.1,3.7-4.4   c2.6-2.2,2.3-4.6,0.6-7c-3.6-5.3-16.8-6-21-1.1c-0.8,0.9-1.5,1.8-2.5,3.1c-3-9.6-4.3-18.9-4.2-28.5c0-3.3,2.2-2.8,4.4-2.6   c-0.8,2.4-1.7,4.6-2.2,6.9c-1.4,6.4,1.4,9.2,7.8,8c1.3-0.3,2.9-0.4,4,0.1c5.2,2.5,7.1,1.8,9.5-3.6c0.4-1,1.6-1.8,2.6-2.2   c1.3-0.6,2.8-0.6,4.2-1c4.1-1.4,5.3-4,4.1-8.2c-0.4-1.2-0.5-2.6-0.2-3.8c1.3-5.9-0.3-8.9-5.9-10.5c0.6-6.2-1.8-9-8.1-9   c-2.3,0-4.6,0.3-6.8,0.4c-5.1,0.3-7.8,3-7.7,8.1c0,2.8,0.5,5.6,0.8,8.5c-2.2,0-4.2,0-6.8,0c1.6-12.7,2.6-25.1,6.9-37.6   c1.1,3.4,1.8,6.2,3,8.8c2.7,5.8,7.4,7.9,13.4,5.7c6.3-2.3,12.4-4.9,18.6-7.4c0.6-0.2,1.1-0.5,1.6-0.8c5.2-3.2,6.6-7.9,3.9-13.3   c-1.2-2.3-2.8-4.4-3.6-5.7c2.5-3.3,5.9-6,6.7-9.3c0.8-3.3-0.9-7.3-1.5-11c6.4-7.6,13.2-15.6,19.6-23.2c3.3,0.7,6.9,1.9,10.5,2.1   c3.7,0.2,5-1.8,5-5.5c0-1.8,0.1-3.6,0-5.4c-0.1-2.5,1-3.7,3.5-4c3.2-0.5,6.4-1.1,9.4-2.2c4.7-1.7,5.8-4,5.5-8.8   c4.5-1.8,5.2-3.8,3-8.3c-0.9-1.7-1.8-3.4-2.5-5.2c-1.3-3.4-3.3-5.3-7-3.8c-2.4-4.5-4.2-5.1-8.8-3c-1,0.5-1.9,1.1-2.9,1.4   c-6.1,1.5-8.6,5.8-3.3,10.9c0.1,0.1,0,0.4-0.1,1.5c-6.5,0.5-13.1,1.5-19.7,1.4c-6.3-0.1-8.4,0.9-9.2,7.2c-0.3,2.2-0.8,3.7-3.3,3.7   c-0.8,0-1.7,0.4-2.3,0.9c-2.9,2.3-3.9,0.6-4.6-2.1c-1.4-5.3-5.9-7.6-10.9-5.8c-6.2,2.3-10.4,8.2-10.4,14.8c0,1.5,0,3,0,5.1   c-1.2-0.9-1.8-1.4-2.4-1.9c-6.6-4.8-17.3-6.1-25.2,1.4c-3.7,3.5-3.9,4.8-0.6,8.6c0.5,0.5,0.9,1.1,1.3,1.7c2.7,4,2.1,6.4-1.5,9.5   c-2.5,2.2-5.1,4.5-7,7.3c-4,5.8-2.7,11,3.5,14.5c1.6,0.9,3.5,1.5,5.4,1.9c3.5,0.8,7.1,1.3,10.8,2c-4.3,12-8.4,23.7-12.6,35.5   c-7.4-4.9-17.4-14-17.8-16.4c2.4-0.6,4.9-1,7.3-1.9c3.4-1.3,5.4-4,5.6-7.7c0.2-3.9-0.8-7.4-4.1-9.9c-1.6-1.2-3.2-2.4-4.6-3.8   c-4.1-4.3-9.1-4.6-13.4-0.5c-1.7,1.6-3.1,3.6-4.8,5.5c-0.7-0.9-1.2-1.6-1.8-2.4c-5.1-6.4-10.1-5.9-14,1.2   c-1.4,2.6-3.2,5.1-4.7,7.6c-1.2,2-2.4,3.9-3.2,6c-1.9,5-0.5,8.2,4.5,10c2.3,0.8,2.5,1.8,1.8,4c-0.9,2.8-1.6,5.8-1.7,8.8   c-0.1,3.3,1.8,5.9,5.2,5.7c3.9-0.3,6.5,1.2,9.2,3.6c2.4,2.2,5.5,3.3,8.7,1.8c3.2-1.6,5.1-4.3,5.2-8c0.1-2.9,0.4-5.7,0.7-9.2   c1.7,0.6,3.3,0.8,4.5,1.5c2.8,1.6,5.3,3.9,8.2,5.3c5.5,2.7,8.7,6.3,7,12.9c-0.4,1.6,0.1,3.4-0.3,5c-0.4,1.4-1.1,3.1-2.2,3.9   c-6.4,4.3-8.2,10-4.6,16.9c1.6,2.9,3.9,5.5,5.9,8.2c0.7,0.9,1.4,1.8,2.5,3.2c-6.8,0.6-12.8,1.1-18.6,1.6c-0.7-4-0.9-7.6-1.9-11.1   c-1.4-4.7-5.1-6.2-9.7-4.5c-4.2,1.6-8.4,3.3-12.6,5c-4.7,1.9-5.7,5.7-2.7,9.9c1,1.4,2.2,2.5,3.4,3.9c-0.7,0.5-1.3,1.1-1.9,1.6   c-5,4-5.1,8.3-0.8,12.9c1.4,1.5,2.5,3.4,3.4,5.3c2.7,5.6,7,7,12.5,4.2c1.1-0.6,3-0.7,4.1-0.2c8.1,3.7,11.4,2.6,15.1-5.4   c3.4,0.2,6.3-0.4,7.6-4.3c1.9-5.5-0.8-9-5.4-12.1c1.8-0.4,3.1-0.6,4.3-1c3.5-1.2,5.1,0.1,6.7,3.5c4.5,9.4,9.9,18.4,14.4,27.9   c1.1,2.4,0.3,5.7,0.2,8.6c0,0.4-1.3,1.2-1.8,1.2c-0.6-0.1-1.3-0.9-1.6-1.6c-0.3-1-0.2-2.2-0.4-3.2c-1.1-5.9-4.7-8.6-10.2-7.3   c-2.3,0.5-4.5,1.7-6.7,2.6c-8,3.6-9.1,7.3-4.7,14.5c-4.1,4.2-4.6,7-2.3,11.1c1.1,2,2.2,4,3.1,6.1c2.6,5.7,7.1,7,12.3,3.6   c0.8-0.5,1.6-1.1,2.4-1.6c4.2,4.2,6.9,4.3,10.9,1.1c2.3-1.9,4.8-3.5,7.3-5c3.5-2.1,4.3-5,1.6-8.1c-1.5-1.7-3.4-3.1-5.2-4.4   c-3.2-2.3-3.2-3.7,0.4-6.6c10.1,11.1,20.2,22.3,30.2,33.3c-5,0.9-9.9,1.9-14.9,2.6c-2,0.3-4.2,0-6.3-0.3c-5.7-0.8-11.3-2.4-17-2.6   c-8.7-0.2-15.6,5.2-18.1,13c-1.4,4.3-0.6,8.3,2.8,11.2c2.3,2,5.2,3.5,8.1,4.4c7.2,2.2,14.6,1.7,21.9,0.5c9.3-1.5,18.1-2.9,27.8,0   c10.7,3.3,22,1.1,32.8-1.7c4.6-1.2,9-2.3,13.5,0.2c1.4,0.8,3.3,0.8,4.9,1c12.4,1.8,24.5-0.1,36.6-2.5c2.9-0.6,5.4-0.5,8.3,0.7   c12.4,5.4,25,7.2,37.7,0.8c1-0.5,2.6-0.1,3.7,0.3c9.9,3.8,20.3,5.2,30.5,2.7c7.9-1.9,15.4-2.7,23.3-0.8c1.8,0.4,3.8,0.2,5.8,0   c5.8-0.5,11.1-2.2,15.3-6.5c5.1-5.3,5.2-11,0.1-16.3c-2.2-2.3-5.1-3.9-8.4-6.4c4-2.4,7.8-4.8,11.7-7c4.2-2.4,9-3.9,12.5-7   c2.9-2.6,4.7-6.4,9.3-6.6c0.6,0,1.3-1.3,1.6-2.2c3.7-8.9,9.9-15.9,16.4-22.7c1.1-1.1,2.2-2.4,2.7-3.8c2.2-7.1,5.1-14.2,6-21.5   c0.7-5.8,2.4-10.3,6.4-14.1c0.1-0.1-0.1-0.4-0.2-0.9c-1,0-2.1,0-3.2,0c-8.3-0.3-16.6-0.6-24.9-0.8c-2.4-0.1-3.6-0.9-4.1-3.4   c-0.8-4-2.1-7.9-2.9-11.9c-0.5-2.1-0.5-4.4-0.7-6.6c6.4-0.8,12.7,1.3,18.1-2.5c5.4-3.8,8-9.1,8.1-16c-3.5,6.1-8.4,7.4-14.9,4.5   c0.6-3,1.2-6.1,1.8-9.1c10.2-2,15.5-6.6,15.5-12.3c-2.3,0.2-4.6,0.7-6.9,0.4c-2.5-0.4-4.8-1.5-7.2-2.3c-7.5-2.7-11.1-1.9-16.4,4   c-0.5-3-1-5.7-1.5-9c5.6-0.3,11.1,2,15.9-2.6c5.1-4.9,7.5-9.3,5.4-14.9c-0.7,1.7-1.1,2.9-1.8,4.6c-3.9-1.3-7.7-2.8-11.6-4   c-4.5-1.3-9-2.4-12.8,2.2c-0.7-2-1.3-3.7-1.9-5.5c1.4-0.4,2.7-0.5,3.7-0.9c4.3-1.8,8.8-3.4,12.6-5.8c3.6-2.3,4-5.6,2.1-9.4   c-0.6,3.9-3,4.4-6.2,4.7c-5.1,0.5-10,1.7-15.6,2.8c-0.3-0.6-0.9-2.1-1.7-3.6c-1.7-3.3-4.7-6.6-4.8-9.9c-0.1-3.4,2.9-6.7,4.2-10.2   c1.6-4.6,1.7-9.3-0.6-13.7c-1.7-3.1-3.2-3.4-6.1-1.4c-1.5,1.1-2.8,2.4-3.9,3.4c-2.3-7.6-4.5-15-6.9-23.2   c-2.2,4.8-4.1,9.1-6.3,13.7c-2.1-4.8-5-7.5-10.3-6.5c-0.8,0.1-1.9-0.7-2.7-1.4c-2.4-1.8-5.2-1-5.2,1.9c-0.1,4.6,1,9,4.1,12.7   c2.4,2.9,4.8,6,7.1,9c2.1,2.7,3,5.3-0.3,8c-1,0.8-1.4,2.2-2,3.4c-1.2,2.3-0.6,3.8,2.1,3.9c2.6,0.1,5.1,0,8.5,0   c-5.2,4.8-7.3,10.1-7.4,16.4c9.3,1.9,14.7-3.7,19.8-10.4c1.1,2.4,1.8,4.1,2.3,5.1c-3.2,1.4-6.6,2-8.7,3.9   c-8.4,7.7-9.5,18.3-10.8,29.2c1.9-0.3,3-0.6,4.2-0.7c0.7,0,1.8,0.1,2.2,0.5c2.9,3.1,5.6,6.3,8.4,9.4c-0.5,1.3-2.2,3.4-2,5.2   c0.6,5.2,1.6,10.5,3.3,15.5c2.2,6.6,10.3,8.4,15.6,3.7c1.8-1.7,2.7-0.9,4.4,0.6c-1.1,0.5-1.8,0.9-2.6,1.1c-4.5,1-8.6,3.2-11.1,7   c-3.9,6-7.1,12.5-10.7,18.7c-2.2,3.7-2.7,7.4,0.2,11c-10.9,5.3-13.9,15.5-15.7,25.8c-0.5,2.9-1.1,4.8-3.4,6.2   c-4.6,3-9.4,5.9-14,8.8c-2.9,1.8-6.6,2.8-6.4,7.4c0,0.6-0.9,1.3-1.6,1.8c-2.9,2.3-5.9,4.5-8.9,6.8c-0.8,0.6-1.4,1.3-2.1,2   c0.1,0.4,0.2,0.7,0.3,1.1c5.8,0.7,11.7,1.4,17.9,2.2c-2.3,3-4.5,5.5-6.3,8.3c-3.4,5.6-7.6,9-14.6,7.4c-1.6-0.3-3.4,0.1-5,0.3   c-9.1,0.7-18.1,2.6-27.5,1.3c-11.2-1.5-22.3,1-33.2,3.7c-1.1,0.3-2.5,0.6-3.5,0.2c-13.1-5.4-26.7-6.7-40.4-4.5   c-8,1.3-15.5,1.4-23-1.5c-1-0.4-2.1-0.6-2.9-1.3c-10.5-9.9-21-19.8-31.4-30c-3.1-3-5.6-6.8-8.3-10.2c0.2-0.3,0.5-0.7,0.7-1   c6.3,0.2,12.4,1.8,18.1,4.6c4.5,2.2,4.7,3.7,1.3,7.7C1686.2,357.2,1687.9,360.2,1688.7,364.2z M1831.9,232.5   c3.3-1.5,6.8-2.9,10.1-4.6c3.1-1.7,6.4-3.7,5.7-7.9c-0.7-4.1-4.3-5.5-7.7-6.9c-1-0.4-2.1-0.2-3.2-0.2c-11.2,0-22.4-0.1-33.6,0.1   c-3.1,0.1-4.9-0.6-5.4-4c-0.4-2.6-1.3-5.1-2.3-7.6c-2.2-5.9-5.2-11.4-10.9-14.9c-4.2-2.6-8.4-3-12.9-0.3   c-8.7,5.4-14.9,12.5-16.8,22.8c-0.6,3.6-2.2,5.4-6.5,5.2c-11.9-0.5-23.8-0.5-35.8-0.6c-3.7,0-7.5,2.4-8.1,5   c-0.8,3.6,1.6,5.7,4.3,7.2c4.2,2.3,8.5,4.3,12.3,6.2c-0.6,3.5-2.2,7.2-1.5,10.4c0.8,3.2,3.9,5.8,5.9,8.6c-2.4,2.1-5.3,4.6-8.2,7.1   c-13,11.3-25.9,22.7-39,33.8c-6.8,5.7-6.4,16.2,1.2,20.8c1.4,0.9,3,1.5,4.6,2.3c-0.9,18.2,6.1,30.4,25.6,32.2   c1.3,11.7,5.4,17,15.1,18.6c4.1,0.7,8.4,0.3,12.6,0.7c1.6,0.1,3.5,0.7,4.6,1.7c6.6,6.3,13.6,11.9,22.4,14.8   c11.7,3.8,19.5,1.5,27.2-8.1c0.3-0.4,0.5-0.9,0.9-1.1c1.3-0.7,2.7-1.8,4.1-2c4.4-0.5,8.9-0.3,13.3-0.9c17.3-2.4,28-12.1,32-28.8   c0.2-1,1.1-2.3,2-2.7c10.9-4.8,16.7-13.6,18.5-24.9c0.8-5.1,1.7-9.3,6.2-12.8c5.8-4.5,4.1-15.2-2.6-18.6   c-10.3-5.2-20-11.6-29.7-17.8c-6.1-3.8-11.9-8-18.1-12.3C1832.8,245.2,1833.7,243.7,1831.9,232.5z"></path>		<path class="st1" d="M1654.2,513.4c4.5-11.2,8.9-22.1,13.6-33.6c6.6,3,13.4,5.6,19.7,9.2c5.5,3.1,7.9,8.3,6.5,14.7   c-1.7,8.2-5.9,14.5-14.6,16.5c-2.6,0.6-5.7,0.7-8.2-0.1C1665.6,518.3,1660,515.7,1654.2,513.4z M1663.4,513   c8.3,5.3,15.4,3.6,19.8-4.8c1.2-2.2,2.1-4.6,2.5-7.1c1.4-7-2.7-12.7-9.8-13.9c-0.8-0.1-2.2,0.5-2.4,1.2   C1670,496.6,1666.7,504.9,1663.4,513z"></path>		<path class="st1" d="M1523.5,300.8c-0.3-0.3-0.9-0.7-1.4-1.2c-5.4-5.3-10.7-10.6-15.8-15.7c6.1-6.1,12-12,17.8-17.9   c5.4,5.6,11.1,11.7,16.7,17.5C1535.5,288.8,1529.6,294.7,1523.5,300.8z"></path>		<path class="st1" d="M1569.5,155.1c-10.1,0-19-8.7-19.2-18.7c-0.1-10.9,10.1-21.7,20.5-21.6c10,0.1,18.4,8.7,18.5,18.8   C1589.4,144.3,1579.4,155.1,1569.5,155.1z M1565.9,121.7c-6.9,0-11.7,6.3-9.4,12.8c2.4,6.8,7.8,10.9,14.4,13.1   c7.5,2.5,14.5-4.2,12.6-12C1581.9,129.1,1572.6,121.7,1565.9,121.7z"></path>		<path class="st1" d="M1991.3,283.2c5.8-5.8,11.7-11.6,17.4-17.2c5.6,5.6,11.5,11.4,17.3,17.2c-5.7,5.6-11.7,11.5-17.7,17.3   C2002.8,294.9,1997,289,1991.3,283.2z"></path>		<path class="st1" d="M1918.5,113.1c-2.2-2-4-3.6-5.9-5.4c3.2-3.5,6.2-6.8,9.1-10.1c0.8-0.9,1.9-1.8,2.2-2.8   c0.4-1.4,0.7-4.1,0.2-4.3c-1.5-0.6-4-1.1-5-0.3c-3,2.5-5.6,5.6-8.3,8.5c-1.2,1.3-2.2,2.8-3.6,4.4c-2.1-1.9-4.1-3.6-5.9-5.3   c5.6-6.4,11-12.5,16.4-18.6c5.4,3.6,5.8,4.1,4.9,6.7c7.3,0.7,10,3.4,9.5,9.8c0.2,0.1,0.4,0.4,0.6,0.3c4.6-0.6,8.4,0.8,10.6,5.1   c2.1,4.2-0.4,7.4-3,10.3c-3.3,3.8-6.8,7.5-10.4,11.5c-1.9-1.7-3.9-3.4-5.9-5.2c2.8-3,5.4-5.8,8-8.6c0.9-1,1.8-2,2.6-3   c1.4-1.9,2.9-4,0.7-6.1c-2.3-2.2-4.5-0.9-6.3,1.1c-2.7,2.9-5.2,6-7.8,9C1920.3,110.9,1919.5,111.9,1918.5,113.1z"></path>		<path class="st1" d="M1647.5,60.3c-2.8-4.7-5.3-9.1-7.9-13.5c2.3-1.4,4.5-2.6,6.9-4c6.4,11.4,12.8,22.8,19.3,34.4   c-2.7,0.8-4.4,4.1-7.9,2.4c-3,7.5-10.9,9.3-16.4,2.9c-2.6-3-4.6-6.9-5.4-10.7C1634.5,64.7,1639.2,60.2,1647.5,60.3z M1655.6,77.3   c-1.2-5.4-3.1-9.7-7-12.8c-0.9-0.7-2.8-0.9-3.9-0.4c-0.8,0.4-1.5,2.2-1.5,3.3c0.3,4.9,2.7,8.9,6.3,12.1c0.9,0.8,2.9,1.2,4.1,0.8   C1654.5,80,1655,78.2,1655.6,77.3z"></path>		<path class="st1" d="M1772.7,538.6c-3-3.8-2.8-5.2,0.1-8.5c-1.3-1.8-2.8-3.4-3.7-5.3c-3.1-5.9,0.7-12,8-12.7   c3.6-0.4,7.2-0.4,10.8-0.4c1.2,0,2.3,0.8,3.5,1.2c-1,0.7-2,1.5-3,2.3c3.5,7.7,0.6,12.9-8.3,14.2c-1.2,0.2-2.2,1.2-3.3,1.8   c1.2,0.7,2.4,1.7,3.7,2c1.5,0.3,3.1-0.1,4.7-0.1c7.2,0.1,10.3,5.3,7.2,11.8c-3.1,6.4-15.4,9.2-20.9,4.8   C1767.7,546.9,1768.2,542.6,1772.7,538.6z M1780.8,538.6c-4.6,0-6.6,1.4-6.7,4.7c-0.1,3.4,2.6,5.8,6.4,5.8c3.7,0,6.4-2.5,6.3-5.9   C1786.8,540.1,1784.8,538.6,1780.8,538.6z M1782.2,521.1c-0.3-1.3-0.4-3.1-1.1-4.7c-0.3-0.8-1.6-1.5-2.5-1.6c-0.7,0-2,1-2.1,1.6   c-0.1,2.9,0,5.9,0.4,8.8c0.1,0.7,1.9,1.5,2.8,1.5c0.7,0,1.6-1.2,2-2.1C1782.1,523.6,1782,522.5,1782.2,521.1z"></path>		<path class="st1" d="M1596.1,94.4c2.6-1,3.5-5,7.4-3.5c0.3-3.9,2.4-6.7,6.4-8.1c4.1-1.4,7.6,0.1,10.6,2.8c1.7,1.5,3.1,3.3,4.4,5.2   c4.1,6.2,3.4,15-7.7,17c3.3,3.8,6.4,7.4,9.7,11.2c-1.9,1.7-3.9,3.4-5.9,5.1C1612.7,114.4,1604.6,104.6,1596.1,94.4z M1620.5,101.2   c0.1-3.7-6.5-11.9-10.2-12.7c-2.7-0.6-4.8,1.5-4,4.3c1.4,5,4.6,9,9.2,11.5C1618.2,105.7,1620.5,104,1620.5,101.2z"></path>		<path class="st1" d="M1985.7,419.1c-12.6-7.2-23.8-13.6-35.3-20.2c1.2-2.2,2.5-4.4,3.9-7c4.5,2.7,8.9,5.4,13.7,8.3   c-0.6-5.6,1-9.6,6.3-11.3c4.9-1.7,11.8,0.7,15.8,5.5c3.3,3.8,4,8.1,1.7,12.7c-0.5,1-1,2.1-1.8,2.7   C1986.9,411.7,1983.7,413.6,1985.7,419.1z M1973.6,395.2c-0.4,0.3-1.8,0.9-2.2,1.9c-0.4,1-0.4,2.8,0.3,3.6   c3.5,4.3,8.2,7.1,13.7,7.9c2.9,0.5,4.4-2,3.2-4.7C1987.1,400.7,1978.1,395.1,1973.6,395.2z"></path>		<path class="st1" d="M1563.7,436.7c-2-0.8-3.7-1.5-5.8-2.4c10.6-8.6,20.7-16.8,31-25.2c1.7,1.9,3.3,3.8,5.1,6   c-4.1,3.2-8.2,6.5-12.5,9.8c9.8,4.2,10.9,13.3,2.6,19.7c-3.2,2.5-6.7,4.3-10.9,3.8C1567.4,447.8,1563.7,443.2,1563.7,436.7z    M1570,442.8c3.8,0.1,12.8-6.7,13.8-10.4c0.7-2.6-1.7-5.1-4.4-4.2c-5.3,1.8-9.4,5.2-12.3,10C1565.7,440.6,1567.2,442.7,1570,442.8   z"></path>		<path class="st1" d="M1591.5,468.7c3-3,6.5-6.4,9.9-10c1.8-1.8,3.6-4,1.2-6.5c-2.6-2.7-5-0.8-6.9,1c-3.5,3.4-6.8,7.1-10.5,11.1   c-1.9-1.8-3.7-3.5-5.7-5.4c9.1-9.6,18.1-19,27.3-28.6c1.6,2,3.2,4.1,5.4,6.8c-3.2,3-7,6.6-10.8,10.2c2.3,0.9,4.6,1.4,6.4,2.7   c4.3,3,4.9,7.4,1.5,11.6c-3.9,4.7-8.4,8.9-12.9,13.7C1594.7,473,1593.2,471,1591.5,468.7z"></path>		<path class="st1" d="M1948.1,463.4c-1.8,1.7-3.7,3.3-5.8,5.3c-8.7-9.3-17.4-18.7-26.2-28.2c-0.5,0.3-0.9,0.6-1.4,0.8   c1.8-1.8,3.5-3.7,5.5-5.8c3.9,4,7.7,7.9,11.9,12.3c0.1-1.7,0.1-2.6,0.3-3.5c1.1-6.6,8.4-9.8,13.4-5.3c4.5,4.1,8.2,9.1,12.3,13.7   c0.4-0.2,0.8-0.4,1.2-0.6c-1.9,1.6-3.9,3.2-5.7,4.8c-2-1.9-4.3-4.1-6.6-6.4c-1.2-1.2-2.3-2.5-3.6-3.6c-2-1.7-4.2-4-6.9-1.5   c-2.8,2.6-0.7,5.1,1.1,7.2c3.1,3.7,6.2,7.4,9.3,11.1C1947.2,463.7,1947.6,463.5,1948.1,463.4z"></path>		<path class="st1" d="M1896,460.9c3.9-3.1,7.6-6.4,11.6-9.2c4.7-3.4,9.4-2.9,12.7,0.8c3.8,4.2,4.2,9.9,0.6,14.2   c-1.5,1.8-3.3,3.4-5.3,5.5c3,3.7,6.1,7.5,9.4,11.6c-2.2,1.8-4.3,3.5-6.7,5.4C1910.9,479.6,1903.5,470.3,1896,460.9z M1913.1,469   c4.1-3.2,4.3-6.6,0.8-10.6c-3-3.3-5.5-3.3-8.9,0.2C1907.6,462,1910.4,465.5,1913.1,469z"></path>		<path class="st1" d="M1896.7,503.4c-2.5,1.3-4.6,2.5-6.9,3.5c-0.6,0.3-1.5,0-2.2-0.2c-0.4-0.1-0.7-0.6-1.1-1   c-6.4-6.1-6.5-6.2-14.2-1.6c-1,0.6-1.7,2.1-1.8,3.3c-0.2,1.5,0.4,3.1,0.6,4.6c0.6,4.3,0.5,4.3-4.2,6c-0.3-3.9-0.6-7.6-0.9-11.4   c-0.6-8.3-1.4-16.5-1.8-24.8c-0.1-1.5,1.6-3.1,2.7-5.1c5.6,5.1,10.3,9.5,15.2,13.8C1886.8,494.8,1891.6,499,1896.7,503.4z    M1869.6,489.8c-0.2,0.1-0.5,0.3-0.7,0.4c0.4,3.5,0.7,7,1.1,11c2.8-1.4,5-2.5,7.7-3.9C1874.7,494.6,1872.1,492.2,1869.6,489.8z"></path>		<path class="st1" d="M1744.9,45.5c2.5,4,4.8,6.8,8.8,5.7c1.8-0.5,4-2.1,4.5-3.7c0.4-1.4-0.8-3.9-2.1-5.1c-1.7-1.5-4.2-2.2-6.4-3.3   c-6.1-2.9-8.4-7.1-7.1-13c1.2-5.3,5.6-8.7,11.8-8.5c2.6,0.1,5.3,0.9,8.3,1.5c-0.7,2.6-1.3,4.3-1.9,6.6c-1.2-1.3-1.9-2.2-2.7-2.9   c-2.5-2.2-6.5-2-8.4,0.5c-1.8,2.4-1,5.1,2.4,7.1c2.3,1.3,4.8,2.2,7.2,3.4c4.1,2.1,6.4,5.4,6.1,10.2c-0.3,4.8-2.8,8.5-7.3,9.8   c-3.5,1-7.3,1.1-11,1.1c-2.7,0-4.6-1.4-3.2-4.7C1744.5,48.9,1744.5,47.7,1744.9,45.5z"></path>		<path class="st1" d="M1865.4,39.3c-1.3,1.5-2.4,3-3.5,4.3c-1.5-2.2-2.5-4.3-4.1-5.7c-2-1.6-4.6-1.7-6.6,0.3c-2,2-1.4,4.2,0.1,6.2   c1.4,1.8,3,3.4,4.6,5.1c4.1,4.6,4.8,9.1,2.1,13.8c-2.5,4.3-7.6,6.7-13.1,5.1c-3.7-1-7.1-3.1-11.1-4.9c1.9-2.9,3.1-4.8,4.9-7.5   c0.5,1.7,0.7,2.7,0.9,3.6c1,3.4,3.8,5.6,7.2,5.5c3.7-0.1,6-3.9,4-7.2c-1.1-1.9-2.7-3.6-4.3-5.3c-3.5-3.6-5.6-7.5-3.5-12.7   c1.6-4,4.4-6.6,8.8-7C1857.4,32.6,1862,34.6,1865.4,39.3z"></path>		<path class="st1" d="M1548.5,353c0.7-2.7,1.7-4.9,1.8-7.1c0.1-2.5-1.6-4.3-4.2-4.7c-2.5-0.3-4.1,1.3-4.7,3.6   c-0.7,2.7-1.2,5.4-1.8,8.1c-1,4.7-3.6,7.8-8.5,8.8c-4.9,0.9-8.9-0.8-11.6-4.9c-1.3-2-2.2-4.3-2.9-6.6c-1.9-7.1-0.6-8.6,7.4-7.8   c-0.8,1-1.4,1.8-2,2.5c-2.3,2.7-2.1,5.6-0.5,8.4c2,3.5,6.7,3.5,8.4-0.2c1.1-2.5,1.5-5.3,2.1-8c1.5-7.3,7.2-11.3,13.9-9.5   c5.9,1.6,10.4,9.9,8.4,15.7C1553.2,354.8,1550.4,352.6,1548.5,353z"></path>		<path class="st1" d="M1809.7,58c1-5.3,2-10.2,2.9-15c0.5-2.5,0.5-5.1-2.5-5.9c-3.3-1-4.7,1.5-5.3,4.1c-1.1,5-1.9,10.1-2.8,15.5   c-2.5-0.4-4.9-0.8-7.6-1.2c1.5-8.3,2.9-16.4,4.4-24.9c2.5,1.4,6.2-0.6,7.6,3.5c0.7-0.3,1.6-0.8,2.4-1.1c6.4-2.4,11.9,1.5,11.7,8.2   c0,0.8-0.1,1.7-0.2,2.5c-1,5.2-2,10.4-3.1,15.8C1814.7,59,1812.3,58.5,1809.7,58z"></path>		<path class="st1" d="M1810.7,508.9c2.7-0.5,5.1-0.9,7.7-1.4c1.5,8.3,2.9,16.4,4.3,24.9c-2.9-0.5-5.7,2.6-8.8-1.1   c-0.5,0.7-1,1.9-1.9,2.6c-4.8,3.8-11.3,2.1-13.3-3.4c-0.4-1.1-0.7-2.3-0.9-3.5c-0.8-5.1-1.6-10.1-2.5-15.4   c2.5-0.5,4.8-0.9,7.6-1.4c0.7,4.5,1.4,9,2.1,13.4c0.2,1.1,0.4,2.1,0.7,3.2c0.7,2.1,1.8,3.8,4.3,3.4c2.5-0.4,3.5-2.4,3.3-4.5   c-0.5-4.6-1.5-9.2-2.3-13.8C1811.1,510.9,1810.9,510,1810.7,508.9z"></path>		<path class="st1" d="M1962.8,441.6c-7.1,0-13.9-6.8-14-13.9c0-6.9,6.1-13.4,12.5-13.4c7.1,0,14.5,7,14.5,13.9   C1975.9,434.9,1969.3,441.6,1962.8,441.6z M1967.6,435.9c3,0,4.7-2.9,3.1-5.6c-2.9-4.7-7.1-8.1-12.4-9.9c-1.1-0.4-3,0-3.8,0.8   c-0.8,0.8-1.1,2.6-0.9,3.9C1954.5,428.9,1963.8,435.9,1967.6,435.9z"></path>		<path class="st1" d="M1901,96.1c-6-0.1-7.7-1.4-8.9-5.3c-3.1-1.2-5.9-1.8-8.2-3.2c-2.8-1.8-3.6-4.7-2.1-8c1.5-3.2,4-4.8,7.5-4.3   c2.2,0.3,4.4,1.5,6.6,1.8c1.4,0.2,3-0.6,4.5-0.9c-0.6-1.8-0.6-4.3-1.8-5.2c-1.8-1.3-4.4-1.4-6.8-2c-0.2-2.5,1.4-3.7,3.8-3   c3,0.8,6.1,1.6,8.6,3.3c4.5,3,5.1,7.1,2.3,11.6c-1.6,2.7-3.5,5.2-5.2,7.8C1899.8,90.8,1897.6,92.9,1901,96.1z M1897.6,80.7   c-3.2-1.1-6-1.9-7.8,0.9c-0.8,1.2-1.1,3.7-0.4,4.6c1.4,1.9,3.5,1,4.8-0.6C1895.4,84.2,1896.3,82.5,1897.6,80.7z"></path>		<path class="st1" d="M1742.8,518c-1.4-1.8-1-3.2,1.1-4.3c3.9-2.1,8-2.5,12.2-1.1c3.3,1.1,5.2,3.5,5.1,7c-0.1,3.5-0.4,7-0.6,10.5   c-0.1,2.7-1.3,5.7,2.9,6.7c-3.7,3.3-6.9,3-9.4,0.1c-3.6,0.4-6.7,1.2-9.7,1c-3.1-0.2-4.8-2.6-5.1-5.7c-0.3-3.1,0.8-5.8,3.8-7.1   c2.2-0.9,4.6-1.4,6.9-2c1.9-0.5,4.1-0.7,3.6-3.4c-0.4-2.8-2.5-3.9-5-3.5C1746.7,516.4,1744.9,517.3,1742.8,518z M1753.6,525.8   c-0.3-0.3-0.6-0.6-0.8-0.8c-1.6,1.1-3.7,1.8-4.7,3.3c-0.8,1.2-0.6,3.4-0.3,5c0.1,0.5,2.2,1.4,2.5,1.1c1.2-0.9,2.4-2.2,3-3.6   C1753.8,529.2,1753.5,527.4,1753.6,525.8z"></path>		<path class="st1" d="M1947.5,114.2c0.7-2.2,2.3-2.8,4.5-1.5c2.3,1.4,4.9,2.8,6.6,4.7c4.1,4.6,3.7,8.7-0.9,12.9   c-2.2,2-4.6,3.9-7,5.7c-2.2,1.7-4.2,3.2-2.8,6.5c-4.7-0.5-6.4-2.7-6.5-7.1c-2.6-2-5.2-3.4-6.9-5.4c-2.2-2.5-2.1-5.5,0.2-8.2   c2.3-2.7,5.2-3.5,8.4-2c2.2,1,4.1,2.5,6.1,3.8c1.5,1,3.3,2,4.3,0c0.7-1.4,0.9-3.9,0.1-4.8C1952.3,116.9,1949.9,115.8,1947.5,114.2   z M1949.8,127.3c-2.8-1.9-5.3-3.4-7.7-1.3c-1.1,0.9-1.4,2.9-2,4.4c1.7,0.2,3.6,1,5,0.6C1946.7,130.4,1948,128.7,1949.8,127.3z"></path>		<path class="st1" d="M1793,53.2c-5,3.3-7.6,2.9-10.5,0.1c-3.3,0.5-6,1.4-8.8,1.3c-3.2-0.1-5.3-2.2-5.7-5.5   c-0.4-3.5,0.7-6.3,4.1-7.6c2.2-0.9,4.6-1.2,7-1.8c1.7-0.5,4.1-1,3.2-3.3c-0.5-1.5-2.4-3.3-3.9-3.4c-2.2-0.2-4.5,0.9-7.1,1.5   c-1.1-2-0.6-3.7,1.9-4.4c2.7-0.8,5.6-1.8,8.4-1.6c6.2,0.4,8.7,3.5,8.5,9.8c-0.1,3.2-0.5,6.5-0.7,9.7   C1789.2,50.3,1788.7,52.8,1793,53.2z M1782.5,41.9c-3.5,0.4-6.2,1.4-6.5,4.7c-0.1,1.4,1.3,2.9,2,4.4c1.3-1,3.1-1.8,3.7-3.1   C1782.4,46.2,1782.2,44.2,1782.5,41.9z"></path>		<path class="st1" d="M1713.5,59.2c-1.9,2.8-4.7,3.4-8.2,1.7c-2.9,1.6-5.3,3.4-8,4.2c-3.2,0.9-5.9-0.5-7.3-3.7   c-1.4-3.3-0.9-6.2,1.8-8.5c1.7-1.5,4-2.3,5.6-3.8c1-0.9,1.5-2.6,2.1-3.9c-1.7-0.8-3.6-2.4-5.1-2.1c-2.1,0.5-3.9,2.4-6.1,3.8   c-2-1.5-1.9-3.3,0.2-4.7c2.4-1.7,5-3.5,7.7-4.4c5.5-1.6,9.1,0.6,10.8,6.1c1,3.2,1.6,6.6,2.8,9.7   C1710.5,55.4,1712,56.9,1713.5,59.2z M1701,49.8c-1.6,1.5-3.3,2.3-3.5,3.4c-0.4,1.9-0.1,4,0.3,6c0.1,0.5,2.2,1.1,3,0.7   c2.3-0.9,2.3-3,1.7-5.1C1702,53.4,1701.6,51.9,1701,49.8z"></path>		<path class="st1" d="M2008.1,369.5c1.2,3.2-0.1,5.9-4.1,7.6c-0.5,3.1-0.5,6-1.4,8.5c-1.2,3.2-4,4.3-7.4,3.7   c-3.3-0.6-5.6-3.1-5.7-6.5c-0.1-2.3,0.4-4.5,0.6-6.8c0.2-2,0.4-4.5-2.2-4.4c-1.6,0-3.8,1.6-4.5,3.1c-0.9,1.8-0.5,4.1-0.7,6.6   c-1.8,0.5-3.6,0-3.4-2.6c0.3-3.4,0.5-7,1.8-10.1c2-4.5,6-5.7,10.6-3.9c3.4,1.3,6.6,3.1,10,4.3   C2003.4,369.6,2005.3,369.3,2008.1,369.5z M1993.4,373.5c-0.6,3.5-1,6.5,2.6,7.7c1.3,0.5,3-0.3,4.5-0.4c-0.5-1.5-0.5-3.5-1.5-4.5   C1997.7,375,1995.6,374.5,1993.4,373.5z"></path>		<path class="st1" d="M1883,71.9c-2.3-1.1-4.4-2.2-6.6-3.2c-2-1-4.1-2-6.1-3c-4.4,6.8-1.7,10.7,8.5,13.1c-1.4,0.7-2.7,2-4.1,2.1   c-4.8,0.5-11.3-3.8-13-8.2c-2-4.9,0.1-12,4.6-16.1c4-3.6,9.1-4.1,14.1-1.4C1886.5,58.5,1887.6,64.8,1883,71.9z M1877.9,66.1   c1-3.3,3.4-6,0.3-8.6c-1.7-1.4-5,1.4-6.4,5.4C1873.6,63.9,1875.5,64.9,1877.9,66.1z"></path>		<path class="st1" d="M1544.3,387c-2-4.5-3.8-8.7-5.7-12.9c-7.8,2.8-8.3,7.6-1.9,15.4c-1.5-0.3-3.3-0.2-4.5-1   c-3.9-2.6-6.1-10.2-4.6-14.7c1.9-5.4,8.5-9.5,15-9.3c5.1,0.2,9.3,3.8,10.8,9.1C1555.1,380,1552,384.8,1544.3,387z M1541.5,372.9   c0.8,2,1.7,4,2.6,6.4c2.7-1.7,6.4-2.1,5.8-6C1549.6,370.8,1546,370.7,1541.5,372.9z"></path>		<path class="st1" d="M1671.8,61.1c2.9,7.8,6.8,8.2,14.8,1.9c0.3,0.1,0.7,0.2,1,0.4c-0.7,1.7-1,3.9-2.2,5.1   c-4.3,4.5-12,5.4-16.6,2.3c-5.2-3.5-7.9-12.2-5.6-17.7c1.7-4.1,7.4-7.5,12-7.2c4.6,0.3,8.1,3.8,9.6,9.7   C1680.5,57.4,1676.2,59.2,1671.8,61.1z M1677.3,55.6c-2.1-2.6-2.2-6.6-6.3-5.8c-2.4,0.5-2.4,4.2-0.2,8.4   C1672.7,57.5,1674.7,56.7,1677.3,55.6z"></path>		<path class="st1" d="M1718.5,521.5c-4.8-1.1-9.4-2.2-14-3.2c-2.1,8.2,0.8,10.8,11,10.3c-0.2,2.8-2.1,3.5-4.3,3.9   c-6,1-12.9-2.9-14.7-8.1c-2.1-6.2,0.9-14.9,6.3-17.7c3.9-2.1,10.2-1.4,13.7,1.4C1719.8,510.8,1720.6,515.1,1718.5,521.5z    M1711.9,516.9c1.2-5.4,0.8-7.8-1.3-8.3c-2.4-0.5-4.6,2.3-5.1,6.8C1707.6,516,1709.8,516.4,1711.9,516.9z"></path>		<path class="st1" d="M1977.9,336c0.6-2.6,1.2-4.9,1.8-7.5c12.7,3.1,25.3,6.2,38.2,9.3c-0.6,2.5-1.2,4.8-1.8,7.5   C2003.4,342.2,1990.8,339.2,1977.9,336z"></path>		<path class="st1" d="M1710.2,20.9c0.3-0.2,0.4-0.4,0.5-0.4c2.2-0.5,4.4-1,7-1.5c2.6,12.8,5.1,25.4,7.7,38.5c-2.5,0.5-5,1-7.6,1.6   C1715.2,46.1,1712.7,33.4,1710.2,20.9z"></path>		<path class="st1" d="M1829.8,523.1c1,0.7,1.8,1.4,2.7,1.7c1.6,0.4,3.3,1,4.8,0.7c1.1-0.2,2-1.8,3-2.7c-1-0.9-1.8-2-3-2.5   c-1.1-0.5-2.6-0.5-3.9-0.6c-3.7-0.5-6.8-1.8-8-5.7c-1-3.4-0.5-6.5,2.4-8.9c3.2-2.7,7-3.6,10.8-2c1.1,0.4,1.1,3.3,1.7,5   c-0.4,0.2-0.7,0.5-1.1,0.7c-0.8-0.5-1.5-1.2-2.4-1.5c-1.4-0.5-3-1.2-4.3-1c-1,0.1-2.3,1.6-2.4,2.6c-0.1,0.8,1.3,2.2,2.3,2.6   c1.7,0.6,3.5,0.6,5.3,0.8c4.2,0.5,6.7,2.5,7.5,6.2c0.9,4-0.6,7.5-4.3,9.4c-1.7,0.9-3.6,1.5-5.4,1.9   C1830.3,530.4,1829.1,529.1,1829.8,523.1z"></path>		<path class="st1" d="M1616.9,489.2c1.2-1.3,2.3-2.7,4-4.5c0.4,1.4,0.5,2.1,0.8,2.8c0.6,1.5,0.9,3.5,2,4.4c1.2,0.9,3.2,0.7,4.8,1   c-0.1-1.4,0.1-2.9-0.4-4.2c-0.5-1.4-1.7-2.6-2.4-4c-2.1-3.9-1.7-7.3,1.1-10.2c2.5-2.5,6.7-3.4,10-1.3c2.5,1.6,4.5,4,7,6.3   c-2,1.8-3.3,2.9-5.4,4.6c-0.2-1.8-0.1-2.9-0.4-3.8c-0.6-1.5-1.3-3.1-2.4-4.1c-0.6-0.6-2.5-0.6-3.2,0c-0.7,0.5-1,2.3-0.6,3.1   c0.7,1.7,2,3.2,3.1,4.9c2.4,3.8,2.3,7.1-0.4,10.3c-2.4,2.8-6.1,3.6-9.9,2.1C1621.1,495.2,1618.4,492.9,1616.9,489.2z"></path>		<path class="st1" d="M1594,123.2c2.5-0.6,4.9-0.7,6.9-1.8c1.1-0.6,1.4-2.7,2-4.1c-1.5-0.3-3-0.9-4.4-0.8c-1.4,0.1-2.7,1-4,1.5   c-4.4,1.5-7.8,0.6-10.2-2.8c-2.2-3.1-2-6.9,0.7-10.4c0.6-0.8,1.3-1.5,2-2.1c4.2-3.4,5.8-3.1,8.6,2.3c-1.2,0.1-2.1,0-3,0.2   c-1.6,0.3-3.4,0.4-4.6,1.3c-0.8,0.5-1.3,2.5-0.9,3.4c0.3,0.8,2.2,1.3,3.3,1.1c1.7-0.3,3.3-1.3,5-2c4-1.6,7.3-0.9,9.8,2   c2.4,2.9,2.8,6.6,0.6,10c-0.9,1.5-2.1,2.9-3.5,4.1C1597.8,128.7,1596.5,128.3,1594,123.2z"></path>		<path class="st1" d="M1971,145.7c0.2-1.9,0.9-4,0.4-5.8c-0.3-1.2-2.3-1.9-3.5-2.9c-0.6,1.4-1.7,2.7-1.8,4.1   c-0.1,1.7,0.8,3.5,1.1,5.3c0.6,3.4-0.5,6.2-3.5,8.1c-3,1.9-6.4,2.1-9.1,0c-2.1-1.6-3.9-4-5.1-6.4c-2-4.2-1-5.6,4.6-6.4   c-0.3,1.1-0.8,2.1-0.7,3.1c0.1,1.7,0.3,3.6,1.1,5c0.5,0.9,2.3,1.7,3.2,1.4c0.8-0.2,1.5-2,1.5-3.1c0-2.1-0.6-4.3-0.8-6.4   c-0.3-3.6,1.2-6.3,4.5-7.9c3.1-1.5,6.1-1.1,8.8,1c2.9,2.3,4.8,5.4,4.3,9c-0.2,1.2-2.8,2-4.3,3   C1971.4,146.4,1971.2,146.1,1971,145.7z"></path>		<path class="st1" d="M1549.6,421c-1.5-2.4-2.8-4.5-4.2-6.6c7-4.6,13.9-9,21.1-13.6c1.2,1.9,2.5,3.8,3.9,5.9c-1,0.8-1.9,1.6-2.4,2   c2.6,1.3,5.2,2.6,8.6,4.3c-3.3,2-5.4,3.3-7.5,4.6c-3.6-6.1-4.8-6.4-10.7-2.6C1555.6,416.8,1552.9,418.8,1549.6,421z"></path>		<path class="st1" d="M1987.1,354.4c0.9-2.5,1.7-4.9,2.5-7.3c8,2.5,15.7,5,23.9,7.6c-0.8,2.3-1.5,4.7-2.3,7.3   C2003.1,359.4,1995.1,356.9,1987.1,354.4z"></path>		<path class="st1" d="M1609.8,485.7c-2.1-1.7-4.1-3.2-6.1-4.8c5.3-6.7,10.4-13.2,15.6-19.9c2,1.6,3.8,3.1,6,4.8   C1620.3,472.4,1615.2,478.9,1609.8,485.7z"></path>		<path class="st1" d="M1620.4,75.2c2.2-1.5,4.2-2.9,6.3-4.4c4.7,6.9,9.5,13.7,14.3,20.7c-2.1,1.5-4.2,2.9-6.4,4.4   C1630,89,1625.3,82.3,1620.4,75.2z"></path>		<path class="st1" d="M1540.6,406c-1.2-2.3-2.4-4.5-3.6-6.8c7.5-4.1,14.7-8,22.1-12c1.2,2.2,2.4,4.4,3.7,6.8   C1555.5,397.9,1548.3,401.8,1540.6,406z"></path>		<path class="st1" d="M1979,343.4c2.6,0.3,4.3,1.5,4.3,4.3c0,2.8-1.6,4.3-4.2,4.3c-2.6,0-4.3-1.5-4.3-4.2   C1974.7,345.2,1976.4,343.7,1979,343.4z"></path>		<path class="st1" d="M1569.7,381.7c2.6,0.2,4.2,1.7,4.1,4.4c-0.1,2.6-1.6,4.2-4.4,4.1c-2.8-0.1-4.2-1.7-4.2-4.3   C1565.3,383.3,1566.9,381.8,1569.7,381.7z"></path>		<path class="st1" d="M1664.4,45.8c1.4-4.2,2.3-7.7,3.8-10.9c0.6-1.2,3-2.6,4-2.2c2.1,0.7,1.8,2.9,0.6,4.5   C1670.5,40.2,1669.4,44.3,1664.4,45.8z"></path>		<path class="st1" d="M1621.9,457.3c3.5-0.7,7-1.6,10.5-1.8c1.3-0.1,2.6,1.6,4,2.5c-1.2,0.9-2.4,2.3-3.7,2.4   c-2.5,0.2-5-0.1-7.5-0.6c-1.2-0.2-2.4-1.1-3.5-1.7C1621.8,457.9,1621.9,457.6,1621.9,457.3z"></path>		<path class="st1" d="M1613.8,64.7c0.3-2.5,1.9-4.1,4.5-3.9c2.6,0.2,4.1,1.8,4,4.6c-0.1,2.8-1.9,4.2-4.5,4.1   C1615.2,69.2,1613.8,67.5,1613.8,64.7z"></path>		<path class="st1" d="M1707.8,501.4c3.7-2.5,6.9-4.8,10.4-6.8c0.7-0.4,2.5,0.2,3.4,0.9c0.5,0.4,0.4,2.1-0.1,2.9   C1720.2,500.4,1711.3,502.5,1707.8,501.4z"></path>		<path class="st1" d="M1876.8,50c4.2-1.7,7.4-3.4,10.8-4.3c1.2-0.3,3.8,0.6,4.2,1.7c0.9,2.1-0.9,3.2-3,3.4   C1885.2,51.1,1881.4,52.6,1876.8,50z"></path>		<path class="st1" d="M938,390.5c12.6-0.1,22.4,5.2,29.3,15.6c8.3,12.4,10.3,26.1,5.9,40.4c-6.8,21.9-32.3,31.4-52.4,19.8   c-21.8-12.6-26.9-46.4-9.8-64.9C917.4,394.4,927,390.6,938,390.5z"></path>		<path class="st1" d="M19,114.7c0.1-12.8,3-23,10.9-31c12.7-12.8,34-12,44.9,2.4c11.8,15.6,13.6,33.1,5.8,51.1   c-4.9,11.3-14.1,17.5-26.5,18.2c-11.9,0.7-20.8-5.1-27.2-14.7C21.4,132.4,18.9,123.1,19,114.7z"></path>		<path class="st1" d="M296.2,115.5c0-11.1,0-22.2,0-33.2c0-1.7-0.3-3.4,2.1-3.8c13.2-2.4,25.5-1.4,35.4,8.9   c5,5.2,7.2,11.9,8.3,18.9c1.5,9.8,1.2,19.5-3.3,28.6c-5.6,11-15.1,16.5-27,17.9c-3.7,0.5-7.4,0.1-11.2,0.1c-3,0-4.4-1-4.3-4.5   C296.3,137.4,296.2,126.4,296.2,115.5z"></path>		<path class="st1" d="M290.1,431.9c-9.8,0-19.1,0-29.1,0c4.8-12.2,9.5-24.1,14.2-36c0.3,0,0.6,0,0.9,0.1   C280.7,407.8,285.4,419.7,290.1,431.9z"></path>		<path class="st1" d="M1311.3,431.9c-9.9,0-19.2,0-29.1,0c4.8-12.3,9.5-24.3,14.6-37.2C1301.8,407.6,1306.4,419.5,1311.3,431.9z"></path>		<path class="st1" d="M487.1,116.4c-8.8,0-17,0-25.9,0c4.2-12.2,8.4-24.1,12.5-36.1c0.3,0,0.6,0,0.8-0.1   C478.7,92.2,482.8,104.1,487.1,116.4z"></path>		<path class="st1" d="M727.3,116.3c4.3-12.2,8.4-24.1,12.5-35.9c0.3,0,0.6,0,0.9,0c4.1,11.9,8.2,23.8,12.4,36   C744.4,116.3,736.1,116.3,727.3,116.3z"></path>		<path class="st1" d="M1113.2,116.4c-8.9,0-17.1,0-25.9,0c4.2-12.2,8.4-24.1,12.5-36c0.3,0,0.6,0,0.9,0   C1104.9,92.2,1108.9,104,1113.2,116.4z"></path>		<path class="st1" d="M1298.7,116.4c4.3-12.3,8.4-24.1,12.4-35.8c0.3,0,0.7-0.1,1-0.1c4.1,11.8,8.2,23.7,12.4,35.9   C1315.7,116.4,1307.5,116.4,1298.7,116.4z"></path>		<path d="M1688.7,364.2c-0.8-4-2.5-6.9-7.1-6.9c3.4-4,3.3-5.5-1.3-7.7c-5.7-2.8-11.8-4.5-18.1-4.6c-0.2,0.3-0.5,0.7-0.7,1   c2.7,3.4,5.2,7.1,8.3,10.2c10.3,10.1,20.9,20,31.4,30c0.7,0.7,1.9,0.9,2.9,1.3c7.5,3,15,2.8,23,1.5c13.7-2.2,27.4-0.9,40.4,4.5   c1,0.4,2.3,0.1,3.5-0.2c10.9-2.7,22.1-5.2,33.2-3.7c9.4,1.3,18.3-0.7,27.5-1.3c1.7-0.1,3.5-0.6,5-0.3c7,1.5,11.2-1.9,14.6-7.4   c1.7-2.8,4-5.4,6.3-8.3c-6.3-0.8-12.1-1.5-17.9-2.2c-0.1-0.4-0.2-0.7-0.3-1.1c0.7-0.7,1.3-1.4,2.1-2c2.9-2.3,5.9-4.5,8.9-6.8   c0.6-0.5,1.6-1.2,1.6-1.8c-0.2-4.6,3.5-5.6,6.4-7.4c4.7-2.9,9.4-5.8,14-8.8c2.2-1.4,2.8-3.3,3.4-6.2c1.8-10.3,4.8-20.5,15.7-25.8   c-2.8-3.6-2.3-7.2-0.2-11c3.6-6.2,6.8-12.7,10.7-18.7c2.5-3.8,6.5-6,11.1-7c0.7-0.2,1.4-0.6,2.6-1.1c-1.7-1.5-2.6-2.2-4.4-0.6   c-5.3,4.7-13.3,3-15.6-3.7c-1.7-5-2.6-10.3-3.3-15.5c-0.2-1.8,1.4-3.9,2-5.2c-2.8-3.2-5.5-6.4-8.4-9.4c-0.4-0.5-1.5-0.6-2.2-0.5   c-1.2,0.1-2.3,0.4-4.2,0.7c1.2-11,2.3-21.5,10.8-29.2c2.1-1.9,5.5-2.5,8.7-3.9c-0.5-1-1.2-2.7-2.3-5.1   c-5.2,6.7-10.5,12.3-19.8,10.4c0.1-6.3,2.2-11.5,7.4-16.4c-3.4,0-5.9,0.1-8.5,0c-2.7-0.1-3.3-1.6-2.1-3.9c0.6-1.2,1.1-2.6,2-3.4   c3.2-2.7,2.3-5.3,0.3-8c-2.3-3-4.7-6.1-7.1-9c-3.1-3.7-4.2-8.1-4.1-12.7c0-2.9,2.8-3.7,5.2-1.9c0.8,0.6,1.9,1.5,2.7,1.4   c5.2-1,8.2,1.7,10.3,6.5c2.1-4.7,4.1-8.9,6.3-13.7c2.4,8.2,4.7,15.6,6.9,23.2c1.1-1,2.4-2.3,3.9-3.4c2.8-2,4.4-1.7,6.1,1.4   c2.3,4.4,2.2,9.1,0.6,13.7c-1.2,3.5-4.3,6.9-4.2,10.2c0.1,3.4,3.1,6.6,4.8,9.9c0.7,1.5,1.4,3,1.7,3.6c5.6-1,10.5-2.3,15.6-2.8   c3.2-0.3,5.6-0.9,6.2-4.7c1.8,3.8,1.5,7-2.1,9.4c-3.9,2.5-8.4,4-12.6,5.8c-1.1,0.5-2.3,0.6-3.7,0.9c0.6,1.9,1.2,3.5,1.9,5.5   c3.8-4.6,8.3-3.6,12.8-2.2c3.9,1.2,7.7,2.6,11.6,4c0.7-1.7,1.1-2.9,1.8-4.6c2.1,5.6-0.2,9.9-5.4,14.9c-4.8,4.6-10.3,2.3-15.9,2.6   c0.5,3.2,1,6,1.5,9c5.3-5.9,8.9-6.7,16.4-4c2.4,0.9,4.7,2,7.2,2.3c2.2,0.3,4.6-0.2,6.9-0.4c0,5.7-5.3,10.3-15.5,12.3   c-0.6,3-1.2,6.1-1.8,9.1c6.5,2.9,11.4,1.6,14.9-4.5c-0.1,6.9-2.6,12.2-8.1,16c-5.5,3.8-11.7,1.6-18.1,2.5c0.2,2.2,0.3,4.5,0.7,6.6   c0.9,4,2.1,7.9,2.9,11.9c0.5,2.5,1.7,3.4,4.1,3.4c8.3,0.2,16.6,0.5,24.9,0.8c1.1,0,2.1,0,3.2,0c0.1,0.5,0.3,0.8,0.2,0.9   c-4,3.9-5.7,8.4-6.4,14.1c-0.9,7.3-3.8,14.4-6,21.5c-0.4,1.4-1.6,2.7-2.7,3.8c-6.6,6.8-12.7,13.8-16.4,22.7   c-0.3,0.8-1,2.2-1.6,2.2c-4.7,0.2-6.4,4-9.3,6.6c-3.5,3.1-8.3,4.7-12.5,7c-3.9,2.2-7.7,4.6-11.7,7c3.4,2.5,6.2,4.2,8.4,6.4   c5.1,5.3,5,10.9-0.1,16.3c-4.1,4.3-9.5,6-15.3,6.5c-1.9,0.2-3.9,0.4-5.8,0c-7.9-1.9-15.4-1.1-23.3,0.8c-10.3,2.5-20.6,1-30.5-2.7   c-1.1-0.4-2.7-0.8-3.7-0.3c-12.7,6.4-25.3,4.6-37.7-0.8c-2.9-1.2-5.4-1.3-8.3-0.7c-12.1,2.5-24.2,4.4-36.6,2.5   c-1.7-0.2-3.5-0.3-4.9-1c-4.5-2.6-8.9-1.4-13.5-0.2c-10.8,2.8-22.2,4.9-32.8,1.7c-9.7-2.9-18.5-1.6-27.8,0   c-7.3,1.2-14.7,1.7-21.9-0.5c-2.9-0.9-5.8-2.4-8.1-4.4c-3.4-2.9-4.2-6.9-2.8-11.2c2.5-7.8,9.4-13.2,18.1-13   c5.7,0.1,11.3,1.7,17,2.6c2.1,0.3,4.2,0.5,6.3,0.3c5-0.7,10-1.7,14.9-2.6c-10.1-11.1-20.2-22.2-30.2-33.3   c-3.6,2.9-3.6,4.3-0.4,6.6c1.8,1.3,3.7,2.7,5.2,4.4c2.6,3.1,1.8,6-1.6,8.1c-2.5,1.5-5,3.1-7.3,5c-4,3.3-6.7,3.1-10.9-1.1   c-0.8,0.5-1.6,1.1-2.4,1.6c-5.2,3.4-9.7,2-12.3-3.6c-0.9-2.1-2-4.1-3.1-6.1c-2.3-4.1-1.8-6.9,2.3-11.1c-4.4-7.2-3.3-10.9,4.7-14.5   c2.2-1,4.4-2.1,6.7-2.6c5.5-1.3,9.1,1.4,10.2,7.3c0.2,1.1,0.1,2.2,0.4,3.2c0.2,0.7,1,1.5,1.6,1.6c0.6,0.1,1.8-0.7,1.8-1.2   c0.1-2.9,0.9-6.3-0.2-8.6c-4.5-9.4-9.9-18.4-14.4-27.9c-1.6-3.3-3.2-4.7-6.7-3.5c-1.2,0.4-2.5,0.6-4.3,1c4.7,3.1,7.3,6.6,5.4,12.1   c-1.3,3.9-4.2,4.6-7.6,4.3c-3.7,8.1-7,9.2-15.1,5.4c-1.1-0.5-2.9-0.4-4.1,0.2c-5.5,2.8-9.7,1.4-12.5-4.2c-0.9-1.9-2-3.8-3.4-5.3   c-4.3-4.6-4.2-8.9,0.8-12.9c0.6-0.5,1.3-1,1.9-1.6c-1.2-1.4-2.4-2.6-3.4-3.9c-3-4.2-1.9-8,2.7-9.9c4.2-1.7,8.4-3.4,12.6-5   c4.6-1.7,8.3-0.2,9.7,4.5c1,3.4,1.3,7,1.9,11.1c5.8-0.5,11.8-1,18.6-1.6c-1.1-1.4-1.8-2.3-2.5-3.2c-2-2.7-4.4-5.2-5.9-8.2   c-3.6-6.8-1.8-12.6,4.6-16.9c1.1-0.8,1.9-2.5,2.2-3.9c0.4-1.6-0.1-3.4,0.3-5c1.8-6.6-1.4-10.2-7-12.9c-2.9-1.4-5.4-3.6-8.2-5.3   c-1.2-0.7-2.8-0.9-4.5-1.5c-0.3,3.4-0.5,6.3-0.7,9.2c-0.2,3.7-2,6.5-5.2,8c-3.2,1.6-6.3,0.4-8.7-1.8c-2.7-2.4-5.2-4-9.2-3.6   c-3.4,0.3-5.3-2.4-5.2-5.7c0.1-3,0.8-6,1.7-8.8c0.7-2.2,0.5-3.1-1.8-4c-5-1.8-6.3-5-4.5-10c0.8-2.1,2.1-4.1,3.2-6   c1.5-2.6,3.3-5,4.7-7.6c3.9-7.2,8.8-7.6,14-1.2c0.6,0.7,1.2,1.5,1.8,2.4c1.7-1.9,3.1-3.9,4.8-5.5c4.3-4,9.3-3.7,13.4,0.5   c1.4,1.4,3,2.6,4.6,3.8c3.3,2.5,4.3,5.9,4.1,9.9c-0.2,3.8-2.2,6.4-5.6,7.7c-2.3,0.9-4.8,1.3-7.3,1.9c0.4,2.3,10.4,11.5,17.8,16.4   c4.2-11.8,8.3-23.5,12.6-35.5c-3.7-0.7-7.3-1.2-10.8-2c-1.8-0.4-3.7-1-5.4-1.9c-6.2-3.4-7.6-8.7-3.5-14.5c1.9-2.7,4.4-5.1,7-7.3   c3.7-3.1,4.2-5.5,1.5-9.5c-0.4-0.6-0.9-1.2-1.3-1.7c-3.2-3.8-3.1-5.1,0.6-8.6c7.9-7.5,18.6-6.2,25.2-1.4c0.7,0.5,1.3,1,2.4,1.9   c0-2.1,0-3.6,0-5.1c0-6.5,4.2-12.5,10.4-14.8c5-1.8,9.4,0.5,10.9,5.8c0.7,2.7,1.7,4.4,4.6,2.1c0.6-0.5,1.5-0.8,2.3-0.9   c2.5-0.1,3-1.6,3.3-3.7c0.8-6.3,2.9-7.3,9.2-7.2c6.6,0.1,13.2-0.9,19.7-1.4c0.1-1.1,0.2-1.4,0.1-1.5c-5.2-5.1-2.8-9.4,3.3-10.9   c1-0.3,2-0.9,2.9-1.4c4.6-2.1,6.4-1.5,8.8,3c3.8-1.5,5.7,0.5,7,3.8c0.7,1.8,1.6,3.5,2.5,5.2c2.2,4.5,1.5,6.5-3,8.3   c0.3,4.9-0.9,7.1-5.5,8.8c-3,1.1-6.3,1.7-9.4,2.2c-2.5,0.4-3.6,1.6-3.5,4c0.1,1.8,0,3.6,0,5.4c0,3.7-1.4,5.6-5,5.5   c-3.6-0.2-7.1-1.4-10.5-2.1c-6.5,7.7-13.2,15.6-19.6,23.2c0.6,3.7,2.3,7.7,1.5,11c-0.8,3.3-4.2,6-6.7,9.3c0.8,1.3,2.4,3.4,3.6,5.7   c2.8,5.4,1.3,10.1-3.9,13.3c-0.5,0.3-1,0.6-1.6,0.8c-6.2,2.5-12.4,5.1-18.6,7.4c-6,2.2-10.7,0.1-13.4-5.7c-1.2-2.6-1.8-5.4-3-8.8   c-4.3,12.5-5.3,25-6.9,37.6c2.5,0,4.5,0,6.8,0c-0.3-2.9-0.8-5.7-0.8-8.5c0-5.1,2.7-7.8,7.7-8.1c2.3-0.1,4.6-0.4,6.8-0.4   c6.3,0,8.7,2.8,8.1,9c5.6,1.6,7.2,4.6,5.9,10.5c-0.3,1.2-0.2,2.6,0.2,3.8c1.2,4.1,0.1,6.7-4.1,8.2c-1.4,0.5-2.9,0.5-4.2,1   c-1,0.4-2.2,1.2-2.6,2.2c-2.4,5.4-4.3,6.1-9.5,3.6c-1.1-0.5-2.7-0.4-4-0.1c-6.4,1.3-9.3-1.5-7.8-8c0.5-2.3,1.4-4.5,2.2-6.9   c-2.3-0.2-4.4-0.6-4.4,2.6c-0.1,9.6,1.2,18.9,4.2,28.5c1-1.3,1.7-2.2,2.5-3.1c4.2-4.9,17.3-4.2,21,1.1c1.7,2.4,2,4.8-0.6,7   c-1.4,1.2-2.5,2.9-3.7,4.4c-0.3-0.2-0.7-0.3-1-0.5c0-1.2,0.2-2.5-0.1-3.6c-0.5-1.9-1-4.9-2.2-5.2c-2.2-0.6-5.2-0.3-7,1   c-2.9,1.9-4.7,4.8-4.1,8.9c0.9,6.4,2.8,12.2,7.1,17c1,1.1,2.7,1.9,4.2,2.1c6.2,1,12.4,1.5,18.6,2.8c3.1,0.6,6.2,2.1,8.8,4   C1693.1,350.1,1693.6,357.6,1688.7,364.2z M1726.2,410.7c0-0.5,0-0.9-0.1-1.4c-4.4-5.2-8.8-10.5-13.3-15.7   c-0.6-0.7-1.3-1.5-2.2-1.8c-7.7-2.9-15.7-3.1-23.7-2.4c-1.1,9.9,6.6,16.9,16.5,15.6c1-0.1,1.9-0.8,2.9-1.1   c-0.6-0.8-1.2-1.5-1.7-2.3c-0.4-0.5-0.6-1.1-0.9-1.7c0.7-0.2,1.5-0.8,2.2-0.6c2.6,0.6,3.6,2.5,3.8,5.1c0.1,2.8-1.8,3-3.8,3.2   c-0.7,0.1-1.4,0.1-2.1,0.3c-9.8,1.7-18.6-5-19.6-14.9c-0.1-1-0.2-2.1-0.3-3.6c-5.6,1-11,1.9-17,3c3.9,5.8,7.2,11.1,10.8,16.2   c1.1,1.5,2.9,2.9,4.7,3.6c6.6,2.6,13.7,3,20.6,2.3C1710.7,413.5,1718.4,411.9,1726.2,410.7z M1716.3,392.6   c4.6,5.7,8.1,10.5,12.2,14.9c1.9,2.1,4.7,3.8,7.4,4.6c8.6,2.5,17.4,1.7,26.2,0.5c5.1-0.7,10.1-1.7,15.8-2.7   c-3.6-4.4-6.4-8.3-9.7-11.7c-1.8-1.9-4.2-3.6-6.7-4.4c-8.6-2.9-17.7-3.7-26.7-3.2C1728.9,390.9,1723.2,391.8,1716.3,392.6z    M1865.2,412.9c-4-6.4-7.4-11.6-10.5-17c-1.9-3.3-4.6-5-8.2-5.1c-6.8-0.1-13.7,0-20.5,0.4c-4,0.2-8,1.2-12.5,1.9   c2.8,5.4,5.2,10.2,7.9,14.8c1,1.7,2.8,3.4,4.6,4.2c8,3.5,16.5,4.5,25.1,3.6C1855.5,415.3,1859.9,414,1865.2,412.9z M1653.4,389.6   c-0.1,5.2-1.1,10.3,2.3,14.8c0.5,0.7,0.5,1.8,0.7,2.7c-0.9-0.3-2.3-0.4-2.7-1c-1.1-1.8-2.3-3.7-2.7-5.8c-0.5-2.8-0.6-5.7-0.4-8.6   c0.2-2.3-0.6-2.9-2.7-3c-2.7-0.1-4.1,0.8-4.9,3.5c-1.3,4.3-1.1,8.3,1.4,12.4c-5.2-0.4-5.7-2.9-4.1-14.4   c-5.6,0.8-10.9,6.6-11.2,12.3c-0.2,4.9,3.1,9.3,9.3,10.2c6.6,0.9,13.4,1,20.1,0.6c5.4-0.3,10.7-1.8,16.7-2.8   c-3.1-4.8-6.1-8.6-8.2-12.9C1664.2,392.1,1659.7,390.1,1653.4,389.6z M1820.3,411.9c-2.9-5.4-5.8-10.5-8.3-15.9   c-1.6-3.4-4-4.7-7.4-4.4c-9.1,0.8-18.2,1.6-27.2,2.6c-2.3,0.2-4.5,1.1-6.6,1.6c5.8,10.6,13.8,17.4,25.6,19.2   C1804.6,416.3,1812.5,416.3,1820.3,411.9z M1886.2,395.2c3.6,1.6,5.7,5.4,5.1,7.9c-0.8,3.1-3.3,3-5.8,2.9   c-10.2-0.6-16.2-7.2-21.7-15.2c-2,0.6-4.4,1.3-7.1,2.1c3.6,6.2,6.8,12,10.2,17.7c0.4,0.7,1.1,1.4,1.9,1.6   c8.1,2.3,16.4,3.4,24.4-0.2c4.1-1.9,8.1-4.7,8.1-9.7c0.1-5.4-3.6-8.7-8.3-10.8c-0.4-0.2-0.9-0.4-1.3-0.6   c-8.3-3.5-16.7-1.7-25.4-0.3c6.3,6.5,11.6,13.9,22.5,12.2C1887.9,400.3,1887.2,398.1,1886.2,395.2z M1683.7,195.6   c3.8-3.2,7.8-6.5,11.8-9.8c-0.1-0.4-0.3-0.8-0.4-1.3c-6.5,2.2-9.6-0.9-10.9-7.7c-2.5,2.8-4.5,4.7-6,6.8c-0.5,0.7-0.5,2.4,0,3.2   C1679.7,189.7,1681.5,192.3,1683.7,195.6z M1712.5,157.9c3.7,0.5,6.3,1,8.9,1.2c1.2,0.1,3.2,0.2,3.5-0.5c0.6-1.1,0.7-3.1,0.1-4.1   c-0.6-0.9-2.5-1.3-3.7-1.1c-1.9,0.2-3.8,0.9-5.5,1.7C1714.7,155.6,1713.9,156.7,1712.5,157.9z M1628.6,292.6   c0.3-3.1,0.5-5.6,0.8-8.6C1625.6,287.2,1625.5,288.2,1628.6,292.6z M1915,313.1c2.5-2.5,1.9-3.8-2.2-5.3   C1913.5,309.7,1914.2,311.4,1915,313.1z"></path>		<path d="M1831.9,232.5c1.8,11.1,0.8,12.6-13.6,20.7c6.2,4.2,12,8.5,18.1,12.3c9.8,6.1,19.4,12.6,29.7,17.8   c6.7,3.4,8.4,14.1,2.6,18.6c-4.6,3.5-5.4,7.7-6.2,12.8c-1.8,11.4-7.6,20.1-18.5,24.9c-0.9,0.4-1.7,1.7-2,2.7   c-4,16.7-14.7,26.4-32,28.8c-4.4,0.6-8.9,0.4-13.3,0.9c-1.4,0.2-2.8,1.2-4.1,2c-0.4,0.2-0.6,0.7-0.9,1.1   c-7.7,9.6-15.5,11.9-27.2,8.1c-8.8-2.9-15.9-8.4-22.4-14.8c-1.1-1-3-1.5-4.6-1.7c-4.2-0.4-8.5,0-12.6-0.7   c-9.7-1.6-13.9-6.9-15.1-18.6c-19.5-1.8-26.5-13.9-25.6-32.2c-1.6-0.8-3.2-1.5-4.6-2.3c-7.6-4.6-8-15.1-1.2-20.8   c13.1-11.1,26-22.5,39-33.8c2.9-2.5,5.8-5,8.2-7.1c-2-2.8-5.2-5.4-5.9-8.6c-0.7-3.2,0.9-6.9,1.5-10.4c-3.8-1.9-8.1-3.8-12.3-6.2   c-2.7-1.5-5-3.6-4.3-7.2c0.5-2.6,4.4-5,8.1-5c11.9,0.1,23.9,0.1,35.8,0.6c4.3,0.2,5.8-1.6,6.5-5.2c1.9-10.3,8-17.4,16.8-22.8   c4.5-2.8,8.7-2.3,12.9,0.3c5.7,3.5,8.6,8.9,10.9,14.9c0.9,2.5,1.8,5,2.3,7.6c0.5,3.4,2.3,4.1,5.4,4c11.2-0.2,22.4-0.1,33.6-0.1   c1.1,0,2.3-0.2,3.2,0.2c3.4,1.3,7,2.8,7.7,6.9c0.7,4.2-2.6,6.3-5.7,7.9C1838.7,229.6,1835.3,231,1831.9,232.5z"></path>		<path d="M1663.4,513c3.3-8.2,6.6-16.4,10.1-24.6c0.3-0.7,1.7-1.3,2.4-1.2c7,1.2,11.1,7,9.8,13.9c-0.5,2.4-1.4,4.9-2.5,7.1   C1678.7,516.6,1671.7,518.4,1663.4,513z"></path>		<path d="M1565.9,121.7c6.8,0,16.1,7.3,17.7,14c1.8,7.7-5.1,14.4-12.6,12c-6.7-2.2-12-6.2-14.4-13.1   C1554.2,128,1558.9,121.7,1565.9,121.7z"></path>		<path d="M1655.6,77.3c-0.6,0.9-1,2.7-2,3c-1.2,0.4-3.2,0-4.1-0.8c-3.5-3.2-6-7.2-6.3-12.1c-0.1-1.1,0.6-2.9,1.5-3.3   c1.1-0.5,3-0.3,3.9,0.4C1652.4,67.6,1654.4,71.9,1655.6,77.3z"></path>		<path d="M1780.8,538.6c3.9,0,6,1.6,6,4.6c0,3.4-2.7,5.9-6.3,5.9c-3.8,0-6.4-2.4-6.4-5.8C1774.2,540,1776.2,538.6,1780.8,538.6z"></path>		<path d="M1782.2,521.1c-0.2,1.5,0,2.5-0.4,3.4c-0.4,0.9-1.3,2.1-2,2.1c-1,0-2.7-0.8-2.8-1.5c-0.4-2.9-0.5-5.8-0.4-8.8   c0-0.6,1.4-1.6,2.1-1.6c0.9,0.1,2.1,0.8,2.5,1.6C1781.7,518,1781.9,519.8,1782.2,521.1z"></path>		<path d="M1620.5,101.2c-0.1,2.9-2.4,4.5-4.9,3.1c-4.6-2.5-7.8-6.4-9.2-11.5c-0.8-2.8,1.3-4.9,4-4.3   C1614.1,89.3,1620.6,97.5,1620.5,101.2z"></path>		<path d="M1973.6,395.2c4.5-0.1,13.5,5.5,14.9,8.7c1.2,2.7-0.3,5.2-3.2,4.7c-5.5-0.9-10.2-3.6-13.7-7.9c-0.7-0.8-0.7-2.6-0.3-3.6   C1971.8,396.1,1973.2,395.5,1973.6,395.2z"></path>		<path d="M1570,442.8c-2.8-0.1-4.3-2.2-2.8-4.6c2.8-4.8,7-8.2,12.3-10c2.7-0.9,5.2,1.5,4.4,4.2   C1582.8,436.1,1573.8,442.9,1570,442.8z"></path>		<path d="M1913.1,469c-2.7-3.5-5.4-6.9-8.2-10.4c3.4-3.5,5.9-3.5,8.9-0.2C1917.4,462.3,1917.2,465.8,1913.1,469z"></path>		<path d="M1869.6,489.8c2.6,2.4,5.1,4.8,8.1,7.6c-2.7,1.3-4.9,2.5-7.7,3.9c-0.4-4.1-0.8-7.6-1.1-11   C1869.1,490,1869.3,489.9,1869.6,489.8z"></path>		<path d="M1967.6,435.9c-3.8,0-13.1-7-13.9-10.8c-0.3-1.2,0.1-3.1,0.9-3.9c0.8-0.8,2.7-1.1,3.8-0.8c5.2,1.8,9.4,5.2,12.4,9.9   C1972.3,433,1970.6,435.9,1967.6,435.9z"></path>		<path d="M1897.6,80.7c-1.3,1.8-2.2,3.5-3.4,4.9c-1.4,1.6-3.4,2.5-4.8,0.6c-0.7-0.9-0.3-3.4,0.4-4.6   C1891.6,78.7,1894.5,79.5,1897.6,80.7z"></path>		<path d="M1753.6,525.8c-0.1,1.7,0.2,3.4-0.4,4.9c-0.5,1.4-1.7,2.7-3,3.6c-0.4,0.3-2.5-0.6-2.5-1.1c-0.3-1.7-0.5-3.8,0.3-5   c1-1.5,3.1-2.2,4.7-3.3C1753,525.2,1753.3,525.5,1753.6,525.8z"></path>		<path d="M1949.8,127.3c-1.7,1.4-3,3.1-4.7,3.6c-1.5,0.5-3.3-0.3-5-0.6c0.6-1.5,0.9-3.5,2-4.4C1944.5,124,1947,125.4,1949.8,127.3z   "></path>		<path d="M1782.5,41.9c-0.3,2.3,0,4.4-0.8,6c-0.6,1.3-2.4,2.1-3.7,3.1c-0.7-1.5-2.2-3-2-4.4C1776.3,43.3,1779,42.3,1782.5,41.9z"></path>		<path d="M1701,49.8c0.6,2.1,1,3.6,1.4,5c0.6,2.1,0.6,4.2-1.7,5.1c-0.8,0.3-2.9-0.3-3-0.7c-0.4-1.9-0.7-4.1-0.3-6   C1697.8,52.1,1699.4,51.3,1701,49.8z"></path>		<path d="M1993.4,373.5c2.2,1,4.3,1.5,5.5,2.8c1,1,1,3,1.5,4.5c-1.5,0.2-3.2,0.9-4.5,0.4C1992.4,379.9,1992.8,377,1993.4,373.5z"></path>		<path d="M1877.9,66.1c-2.4-1.2-4.3-2.2-6.1-3.2c1.5-4,4.7-6.8,6.4-5.4C1881.3,60.1,1878.8,62.9,1877.9,66.1z"></path>		<path d="M1541.5,372.9c4.6-2.2,8.1-2.1,8.5,0.3c0.5,3.9-3.2,4.3-5.8,6C1543.2,376.9,1542.3,374.9,1541.5,372.9z"></path>		<path d="M1677.3,55.6c-2.6,1.1-4.6,1.8-6.5,2.6c-2.2-4.2-2.2-7.9,0.2-8.4C1675.1,49,1675.3,53,1677.3,55.6z"></path>		<path d="M1711.9,516.9c-2.1-0.5-4.3-1-6.4-1.4c0.5-4.5,2.7-7.3,5.1-6.8C1712.7,509.1,1713.1,511.6,1711.9,516.9z"></path>		<path class="st1" d="M1726.2,410.7c-7.8,1.2-15.5,2.8-23.3,3.6c-6.9,0.7-14,0.3-20.6-2.3c-1.8-0.7-3.6-2.1-4.7-3.6   c-3.6-5.1-6.9-10.3-10.8-16.2c6-1.1,11.4-2,17-3c0.1,1.5,0.2,2.5,0.3,3.6c1,9.9,9.8,16.6,19.6,14.9c0.7-0.1,1.4-0.2,2.1-0.3   c2-0.2,4-0.4,3.8-3.2c-0.1-2.5-1.2-4.4-3.8-5.1c-0.6-0.2-1.4,0.4-2.2,0.6c0.3,0.6,0.5,1.2,0.9,1.7c0.5,0.8,1.2,1.5,1.7,2.3   c-1,0.4-1.9,1-2.9,1.1c-9.9,1.3-17.6-5.7-16.5-15.6c8-0.7,16-0.5,23.7,2.4c0.8,0.3,1.5,1.1,2.2,1.8c4.5,5.2,8.9,10.5,13.3,15.7   C1726.1,409.8,1726.2,410.2,1726.2,410.7z"></path>		<path class="st1" d="M1716.3,392.6c6.9-0.8,12.6-1.7,18.4-2c9.1-0.5,18.1,0.3,26.7,3.2c2.5,0.8,4.8,2.5,6.7,4.4   c3.3,3.5,6.1,7.3,9.7,11.7c-5.7,1-10.7,2-15.8,2.7c-8.7,1.2-17.5,2-26.2-0.5c-2.7-0.8-5.4-2.5-7.4-4.6   C1724.4,403.2,1720.9,398.3,1716.3,392.6z M1727.1,405.2c1.6-0.8,2.8-1.4,3.9-2c4.6-2.5,9.2-5.2,13.9-7.6c2.2-1.1,3.7-0.2,3.8,2.5   c0,1,0.5,2,0.9,3.5c2.5-2.1,2.5-4.2,1.4-5.9c-0.9-1.4-2.9-3-4.3-2.9c-8.1,0.6-14.2,5.2-19.8,10.6   C1726.8,403.6,1727,403.9,1727.1,405.2z"></path>		<path class="st1" d="M1865.2,412.9c-5.3,1.1-9.7,2.4-14.1,2.8c-8.6,0.8-17.1-0.1-25.1-3.6c-1.8-0.8-3.5-2.4-4.6-4.2   c-2.7-4.6-5.1-9.5-7.9-14.8c4.5-0.7,8.5-1.6,12.5-1.9c6.8-0.4,13.6-0.5,20.5-0.4c3.5,0.1,6.3,1.8,8.2,5.1   C1857.8,401.4,1861.2,406.6,1865.2,412.9z M1840.5,409.3c-0.9-1.1-1.5-2-2.3-2.8c-1.3-1.4-2.9-2.6-4-4.1c-1.6-2.4-1.4-4.8,1.1-6.6   c1.8-1.3,5.2-0.1,6.5,2.2c0.3,0.5,0.3,1.2,0.7,1.6c0.5,0.5,1.1,0.9,1.7,1.4c0.3-0.7,1-1.7,0.7-2.1c-1.3-1.9-2.4-4.5-4.3-5.3   c-2-0.9-5.1-0.8-7,0.2c-2.9,1.5-4,4.6-2.8,8.1C1832.4,405.9,1836.6,409.5,1840.5,409.3z"></path>		<path class="st1" d="M1653.4,389.6c6.3,0.5,10.9,2.4,13.6,8c2.1,4.3,5.1,8.1,8.2,12.9c-5.9,1-11.3,2.5-16.7,2.8   c-6.7,0.4-13.5,0.3-20.1-0.6c-6.2-0.9-9.6-5.3-9.3-10.2c0.3-5.7,5.6-11.5,11.2-12.3c-1.7,11.5-1.1,14,4.1,14.4   c-2.6-4.1-2.7-8.1-1.4-12.4c0.8-2.7,2.2-3.6,4.9-3.5c2.2,0.1,2.9,0.8,2.7,3c-0.2,2.9-0.1,5.8,0.4,8.6c0.4,2,1.5,4,2.7,5.8   c0.4,0.7,1.8,0.7,2.7,1c-0.2-0.9-0.2-2-0.7-2.7C1652.3,399.9,1653.3,394.8,1653.4,389.6z"></path>		<path class="st1" d="M1820.3,411.9c-7.7,4.4-15.7,4.4-23.9,3.2c-11.8-1.8-19.8-8.5-25.6-19.2c2.2-0.5,4.4-1.4,6.6-1.6   c9.1-1,18.1-1.9,27.2-2.6c3.3-0.3,5.8,1,7.4,4.4C1814.5,401.4,1817.4,406.5,1820.3,411.9z M1791.2,402.2c0.2,0.6,0.4,1.2,0.5,1.8   c1.8-0.5,4-0.7,5.4-1.8c1-0.8,1.8-3.1,1.4-4.3c-0.4-1.4-2.1-3.3-3.5-3.5c-6.1-0.9-12,0.1-17.3,3.4c-0.9,0.6-1.3,1.7-2,2.6   c0.3,0.3,0.5,0.6,0.8,0.8c1-0.5,2.1-0.9,3.1-1.4c4.2-2.4,8.8-3.2,13.5-2.8c1.1,0.1,2.1,1.1,3.8,2   C1794.5,400.5,1792.8,401.4,1791.2,402.2z"></path>		<path class="st1" d="M1886.2,395.2c1,2.9,1.7,5.1,2.6,7.6c-10.8,1.7-16.1-5.8-22.5-12.2c8.7-1.5,17-3.2,25.4,0.3   c0.4,0.2,0.9,0.3,1.3,0.6c4.6,2.2,8.3,5.4,8.3,10.8c-0.1,5-4,7.8-8.1,9.7c-8,3.6-16.2,2.5-24.4,0.2c-0.7-0.2-1.5-0.9-1.9-1.6   c-3.3-5.7-6.6-11.4-10.2-17.7c2.7-0.8,5-1.5,7.1-2.1c5.5,8,11.5,14.6,21.7,15.2c2.5,0.1,5,0.2,5.8-2.9   C1891.9,400.6,1889.8,396.7,1886.2,395.2z"></path>		<path class="st1" d="M1683.7,195.6c-2.1-3.3-4-5.9-5.5-8.7c-0.5-0.8-0.5-2.5,0-3.2c1.6-2.2,3.5-4.1,6-6.8   c1.4,6.7,4.4,9.9,10.9,7.7c0.1,0.4,0.3,0.8,0.4,1.3C1691.5,189.1,1687.5,192.5,1683.7,195.6z"></path>		<path class="st1" d="M1712.5,157.9c1.4-1.2,2.2-2.3,3.3-2.8c1.7-0.8,3.6-1.5,5.5-1.7c1.3-0.1,3.2,0.3,3.7,1.1c0.6,1,0.5,3-0.1,4.1   c-0.3,0.6-2.3,0.6-3.5,0.5C1718.9,158.9,1716.3,158.4,1712.5,157.9z"></path>		<path class="st1" d="M1628.6,292.6c-3.2-4.4-3.1-5.5,0.8-8.6C1629.2,287.1,1628.9,289.5,1628.6,292.6z"></path>		<path class="st1" d="M1915,313.1c-0.7-1.7-1.4-3.4-2.2-5.3C1916.9,309.3,1917.4,310.6,1915,313.1z"></path>		<path d="M1727.1,405.2c-0.1-1.3-0.2-1.6-0.1-1.7c5.6-5.4,11.7-10,19.8-10.6c1.4-0.1,3.4,1.6,4.3,2.9c1.1,1.7,1.1,3.8-1.4,5.9   c-0.4-1.5-0.9-2.5-0.9-3.5c-0.1-2.7-1.6-3.6-3.8-2.5c-4.7,2.3-9.3,5-13.9,7.6C1729.8,403.8,1728.6,404.4,1727.1,405.2z"></path>		<path d="M1840.5,409.3c-4,0.2-8.1-3.4-9.6-7.4c-1.3-3.5-0.1-6.6,2.8-8.1c1.9-1,5-1,7-0.2c1.9,0.8,3,3.4,4.3,5.3   c0.2,0.4-0.5,1.4-0.7,2.1c-0.6-0.4-1.2-0.8-1.7-1.4c-0.4-0.4-0.4-1.1-0.7-1.6c-1.3-2.3-4.7-3.5-6.5-2.2c-2.5,1.8-2.7,4.2-1.1,6.6   c1,1.6,2.7,2.7,4,4.1C1839,407.3,1839.6,408.2,1840.5,409.3z"></path>		<path d="M1791.2,402.2c1.6-0.8,3.2-1.7,5.9-3c-1.7-0.9-2.7-1.9-3.8-2c-4.8-0.4-9.3,0.3-13.5,2.8c-1,0.6-2,0.9-3.1,1.4   c-0.3-0.3-0.5-0.6-0.8-0.8c0.7-0.9,1.1-2,2-2.6c5.3-3.4,11.2-4.3,17.3-3.4c1.4,0.2,3,2,3.5,3.5c0.4,1.2-0.3,3.5-1.4,4.3   c-1.4,1.1-3.6,1.2-5.4,1.8C1791.6,403.4,1791.4,402.8,1791.2,402.2z"></path>	</g></g></svg>